<svg xmlns="http://www.w3.org/2000/svg" viewBox="0 0 133.22 40"><defs><style>.cls-1{fill:#fff;}</style></defs><g id="Layer_2" data-name="Layer 2"><g id="LANDING"><g id="MENU"><g id="LOGOTIPO"><polygon class="cls-1" points="49.67 11.97 49.67 28.05 51.06 28.05 51.06 20.72 58.82 20.72 58.82 19.34 51.06 19.34 51.06 13.37 60 13.37 60 11.98 51.06 11.98 51.06 11.97 49.67 11.97"/><polygon class="cls-1" points="120.1 11.94 120.1 13.32 126.1 13.32 126.1 28.02 127.49 28.02 127.49 13.32 133.22 13.32 133.22 11.94 120.1 11.94"/><polygon class="cls-1" points="104.22 20.23 112.58 20.23 112.58 18.84 104.22 18.84 104.22 13.4 113.47 13.4 113.47 12.01 102.83 12.01 102.83 13.4 102.83 28.07 104.22 28.07 104.22 28.06 113.7 28.06 113.7 26.67 104.22 26.67 104.22 20.23"/><polygon class="cls-1" points="92.65 25.81 81.66 11.96 81.66 11.96 81.66 11.96 81.66 11.96 81.66 11.96 80.27 11.96 80.27 28.05 81.66 28.05 81.66 14.19 92.66 28.06 92.68 28.04 94.04 28.04 94.04 11.94 92.65 11.94 92.65 25.81"/><rect class="cls-1" x="68.74" y="11.97" width="1.39" height="16.08"/><path class="cls-1" d="M15.81,33.85V14.79a1.25,1.25,0,0,0-1.25-1.26H11.91a1.25,1.25,0,0,0-1.26,1.26v24A1.25,1.25,0,0,0,11.91,40h24a1.25,1.25,0,0,0,1.25-1.25V1.26A1.25,1.25,0,0,0,35,.39L32.45,3l-.14.15h0A1.13,1.13,0,0,0,32,3.7a1.36,1.36,0,0,0,0,.36c0,2,.1,28.78,0,29.63a1.29,1.29,0,0,1-1.28,1.12l-13.61,0a1.29,1.29,0,0,1-1.26-1"/><path class="cls-1" d="M5.18,36.9V7.75a1.32,1.32,0,0,1,1.24-.92H20.05a1.3,1.3,0,0,1,1.26,1V27a1.25,1.25,0,0,0,1.25,1.25h2.65A1.25,1.25,0,0,0,26.47,27V2.88a1.25,1.25,0,0,0-1.26-1.25h-24A1.25,1.25,0,0,0,0,2.88V5.53a1.64,1.64,0,0,0,0,.23V36.9a1.47,1.47,0,0,0,1.47,1.47H3.71A1.47,1.47,0,0,0,5.18,36.9"/></g></g></g></g></svg>