<svg xmlns="http://www.w3.org/2000/svg" viewBox="0 0 30.01 30"><g id="Layer_2" data-name="Layer 2"><g id="LANDING"><g id="MENU"><path d="M0,30l.26-.78c.79-2.31,1.57-4.63,2.36-6.94a.21.21,0,0,0,0-.2,14.43,14.43,0,0,1-2-8.53A14.22,14.22,0,0,1,3.21,6.23,14.58,14.58,0,0,1,12.05.35,14.17,14.17,0,0,1,15,0a14.46,14.46,0,0,1,8.27,2.35,14.44,14.44,0,0,1,6.22,8.47,14.15,14.15,0,0,1,.5,3.55,14.3,14.3,0,0,1-1.57,6.82,14.74,14.74,0,0,1-10.77,7.86,15,15,0,0,1-9.43-1.58.28.28,0,0,0-.18,0L.85,29.74.13,30Zm3.7-3.62.09,0,4.52-1.44a.33.33,0,0,1,.29,0,12.19,12.19,0,0,0,8.8,1.76A11.83,11.83,0,0,0,24.33,23a11.77,11.77,0,0,0,3.1-10.65,11.93,11.93,0,0,0-6.62-8.7,12.41,12.41,0,0,0-8.29-1A12.28,12.28,0,0,0,6,6.54a12.16,12.16,0,0,0-.76,15.2.19.19,0,0,1,0,.19c-.38,1.11-.75,2.23-1.13,3.34C4,25.63,3.83,26,3.7,26.38Z"/><path d="M19.33,21.52a5.34,5.34,0,0,1-1.49-.28,19,19,0,0,1-3-1.16,11.72,11.72,0,0,1-2.77-2A18.51,18.51,0,0,1,9.6,15.15a10.13,10.13,0,0,1-1.08-1.86,4.88,4.88,0,0,1-.43-2.06,4,4,0,0,1,1.1-2.67,2,2,0,0,1,1.31-.63l.48,0a.62.62,0,0,1,.64.32,4,4,0,0,1,.24.46L13,11.3a.69.69,0,0,1,0,.58,5,5,0,0,1-1,1.28.47.47,0,0,0-.08.66,9.64,9.64,0,0,0,3.91,3.79c.36.19.74.35,1.12.52a.5.5,0,0,0,.67-.16c.39-.47.77-.94,1.15-1.42a.47.47,0,0,1,.59-.21c.36.13.71.28,1,.44l2,1a.52.52,0,0,1,.35.54,3.79,3.79,0,0,1-.31,1.49,2,2,0,0,1-.42.55,3.84,3.84,0,0,1-1.77,1C19.92,21.43,19.56,21.48,19.33,21.52Z"/></g></g></g></svg>