<?xml version="1.0" encoding="utf-8"?>
<!-- Generator: Adobe Illustrator 24.1.0, SVG Export Plug-In . SVG Version: 6.00 Build 0)  -->
<svg version="1.1" xmlns="http://www.w3.org/2000/svg" xmlns:xlink="http://www.w3.org/1999/xlink" x="0px" y="0px"
	 viewBox="0 0 752.56 301.64" style="enable-background:new 0 0 752.56 301.64;" xml:space="preserve">
<style type="text/css">
	.st0{fill:url(#SVGID_1_);}
	.st1{fill:url(#SVGID_2_);}
	.st2{fill:url(#SVGID_3_);}
	.st3{fill:url(#SVGID_4_);}
	.st4{fill:url(#SVGID_5_);}
	.st5{fill:url(#SVGID_6_);}
	.st6{fill:#FFFFFF;}
</style>
<g id="Layer_1">
</g>
<g id="Capa_2">
	<g>
		<linearGradient id="SVGID_1_" gradientUnits="userSpaceOnUse" x1="227.1892" y1="9.4141" x2="72.2505" y2="9.4141">
			<stop  offset="0" style="stop-color:#FFFFFF"/>
			<stop  offset="1" style="stop-color:#FFFFFF;stop-opacity:0"/>
		</linearGradient>
		<polygon class="st0" points="239.2,19.19 76.95,19.19 88.91,-0.37 226.48,-0.37 		"/>
		<linearGradient id="SVGID_2_" gradientUnits="userSpaceOnUse" x1="115.4205" y1="292.3834" x2="277.6651" y2="292.3834">
			<stop  offset="0" style="stop-color:#FFFFFF"/>
			<stop  offset="1" style="stop-color:#FFFFFF;stop-opacity:0"/>
		</linearGradient>
		<polygon class="st1" points="277.67,282.6 115.42,282.6 127.38,302.16 264.95,302.16 		"/>
		<linearGradient id="SVGID_3_" gradientUnits="userSpaceOnUse" x1="18.7051" y1="232.743" x2="113.1998" y2="232.743">
			<stop  offset="0" style="stop-color:#FFFFFF"/>
			<stop  offset="1" style="stop-color:#FFFFFF;stop-opacity:0"/>
		</linearGradient>
		<polygon class="st2" points="113.2,302.16 29.26,163.32 18.71,183.67 89.88,301.41 		"/>
		<linearGradient id="SVGID_4_" gradientUnits="userSpaceOnUse" x1="0.5162" y1="101.679" x2="93.1197" y2="101.679">
			<stop  offset="0" style="stop-color:#FFFFFF"/>
			<stop  offset="1" style="stop-color:#FFFFFF;stop-opacity:0"/>
		</linearGradient>
		<polygon class="st3" points="10.94,171.63 93.12,31.73 70.2,32.13 0.52,150.76 		"/>
		<linearGradient id="SVGID_5_" gradientUnits="userSpaceOnUse" x1="240.8956" y1="69.7351" x2="335.5777" y2="69.7351">
			<stop  offset="0" style="stop-color:#FFFFFF"/>
			<stop  offset="1" style="stop-color:#FFFFFF;stop-opacity:0"/>
		</linearGradient>
		<polygon class="st4" points="324.39,139.29 240.9,0.18 263.82,0.18 335.58,119.67 		"/>
		<linearGradient id="SVGID_6_" gradientUnits="userSpaceOnUse" x1="261.4283" y1="200.3611" x2="353.8799" y2="200.3611">
			<stop  offset="0" style="stop-color:#FFFFFF"/>
			<stop  offset="1" style="stop-color:#FFFFFF;stop-opacity:0"/>
		</linearGradient>
		<polygon class="st5" points="261.43,270.35 342.79,130.37 353.88,151.03 284.01,270.35 		"/>
	</g>
	<path class="st6" d="M675.47,79.2c0,1.85-1.38,4.02-1.38,4.02h9.04c0,0-2.83-2.5-2.83-4.35c-0.08-11.76-0.09-19.58-0.19-30.61
		c0,0,4.33,0.05,7.94,6.52c21.62,30.98,26.63,29.68,26.63,29.68s0.22-38.3,0.21-41.5c-0.01-3.21,2.42-4.6,2.42-4.6s-4.18,0-8.74,0
		c3.04,3.2,2.18,30.69,2.36,32.22c0.28,2.41-1.94,1.61-1.94,1.61l-26.5-33.88h-9.82c0,0,2.56,2.48,2.82,6.14
		C675.81,55.82,675.47,77.81,675.47,79.2z M526.08,148.09h10.79c0,0-1.66-1.84-1.66-3.75c0-0.78-0.15-7.86-0.18-15.97
		c0.03-8.3,0.18-20.92,0.18-21.7c0-1.92,1.66-3.75,1.66-3.75h-10.79c0,0,1.66,1.84,1.66,3.75c0,0.78,0.16,13.4,0.18,21.7
		c-0.03,8.11-0.18,15.19-0.18,15.97C527.75,146.25,526.08,148.09,526.08,148.09z M642.02,83.86c14.32,0,25.93-10.44,25.93-23.32
		c0-12.88-11.61-23.31-25.93-23.31c-14.32,0-25.93,10.44-25.93,23.31C616.09,73.42,627.7,83.86,642.02,83.86z M641.93,41.84
		c11.49,0,17.74,8.37,17.74,18.7c0,10.33-6.25,18.7-17.74,18.7c-11.49,0-17.55-8.37-17.55-18.7
		C624.38,50.21,630.44,41.84,641.93,41.84z M730.62,191.98c0,0-11.75-13.55-12.26-15.46c-3.17-5.24,1.21-7.36,1.21-7.36h-10.89
		l17.8,26.19c0,0,0.58,0.86,0.58,2.77c0,0.54,0.01,1.07,0.01,1.58c-0.03,8.11-0.18,15.19-0.18,15.97c0,1.91-1.66,3.75-1.66,3.75
		h10.79c0,0-1.66-1.84-1.66-3.75c0-0.78-0.16-7.86-0.19-15.97c0.01-0.51,0.01-1.04,0.01-1.58c0-2.23,0.58-2.77,0.58-2.77l17.8-26.19
		h-10.9c0,0,4.39,2.12,1.21,7.36C742.37,178.43,730.62,191.98,730.62,191.98z M455.22,83.86c14.32,0,25.94-10.44,25.94-23.32
		c0-12.88-11.62-23.31-25.94-23.31c-14.32,0-25.93,10.44-25.93,23.31C429.29,73.42,440.9,83.86,455.22,83.86z M455.12,41.84
		c11.49,0,17.75,8.37,17.75,18.7c0,10.33-6.25,18.7-17.75,18.7c-11.49,0-17.54-8.37-17.54-18.7
		C437.58,50.21,443.63,41.84,455.12,41.84z M505.98,148.02c4.48,0,9.51,0.17,13.31-1.75c2.66-3.89,3.2-6.82,3.2-8.01
		c-4.84,3.46-9.1,4.92-12.63,5c-9.39,0.22-18.6-6.19-19.32-17.3c-0.59-12.67,7.1-19.31,15.29-19.87c9.46,0.95,11.75,2.52,13.9,5.04
		c-0.02-2.25,0.08-4.14,0.04-8.08c-2.2-0.49-8.35-1.99-13.09-2.06c-11.86,0-24.14,8.83-24.14,22.42
		C482.54,137,494.13,148.02,505.98,148.02z M704.59,141.99c0.17-10.43,0.5-30.5,0.5-32.21c0-2.32,0.73-7,0.73-7h-8.75
		c0,0,0.77,6.32,0.93,14.05c0.24,11.64-0.11,26.47-0.11,27.62c0,1.92-1.66,3.75-1.66,3.75h26.66c0,0,2.17-4.94,3.34-7.73
		C717.55,145.16,709.16,143.56,704.59,141.99z M498.65,192c0,13.59,11.58,24.61,23.44,24.61c4.48,0,9.51,0.17,13.31-1.75
		c2.66-3.89,3.2-6.82,3.2-8.01c-4.84,3.46-9.1,4.92-12.63,5c-9.39,0.22-18.6-6.19-19.32-17.3c-0.6-12.68,7.1-19.31,15.29-19.88
		c9.46,0.95,11.75,2.53,13.9,5.04c-0.02-2.25,0.08-4.14,0.04-8.08c-2.2-0.49-8.35-1.99-13.09-2.06
		C510.93,169.58,498.65,178.41,498.65,192z M622.45,182.68c0-15.44-14.02-12.5-21.43-12.5h-8.59c0,0,1.62,1.6,1.62,3.2v39.91
		c0,1.39-1.62,2.57-1.62,2.57s5.45,0,10.01,0c0,0-1.77-0.9-1.77-2.51c0-1.61,0-18.17,0-18.17c0.01,0,0.04,0,0.05,0v-3.84
		c-0.02-0.01-0.04-0.01-0.05-0.02v-16.97c1.48-0.97,3.28-0.92,5.23-0.92c5.07,0,9.19,3.89,9.19,8.68c0.28,6.33-6.73,9.74-11.8,9.75
		l1.79,3.25c2.9,4.74,15.12,23.66,23.8,20.71h8.92c0,0-1.66-1.84-1.66-3.75c0-0.78-0.16-7.86-0.18-15.97
		c0.03-8.3,0.18-20.93,0.18-21.71c0-1.92,1.66-3.75,1.66-3.75h-10.79c0,0,1.66,1.84,1.66,3.75c0,0.78,0.16,13.4,0.19,21.71
		c-0.03,8.1-0.19,15.19-0.19,15.97c0,0.32-0.06,0.63-0.13,0.94c-3.69-2.24-10.69-7.67-17.41-19.98
		C617.02,190.76,622.45,186.97,622.45,182.68z M577.99,62.33c3.74,1.24,5.87,2.77,7.05,3.93c1.91,2.2,3.41,4.73,2.95,7.42
		c-0.72,5.37-14,9-24.46,1.43c0,2.56,0.45,5.37,2.08,7.52c6.99,1.59,9.84,1.1,13.75,1.23c10.48,0.32,15.91-6.47,15.91-12.94
		c0.72-8.39-8.72-11.79-8.73-11.8c-5.01-2.84-15.75-2.71-15.51-11.23c0-1.41,0.07-3.58,2.63-4.79c8.7-4.11,13.81,1.58,17.59,1.55
		c-0.71-0.32-0.58-3.99-0.58-6c-2.07-0.84-5.59-1.43-11.32-1.43c-6.47,0-15.92,5.74-15.92,12.21
		C563.47,57.83,571.06,60.05,577.99,62.33z M492.02,78.44c0-2.27,3.46-27.55,3.46-27.55s0.39-2.93,0.48-4.15
		c0.34-0.66,0.92-0.24,1.89,0.77c11.27,28.74,15.82,34.67,15.82,34.67s4.56-5.93,15.82-34.67c0.97-1,1.54-1.42,1.89-0.77
		c0.09,1.22,0.48,4.15,0.48,4.15s3.47,25.28,3.47,27.55c0,2.26-1.8,4.3-1.8,4.3h10.37c0,0-1.42-1.12-1.9-4.17
		c-0.16-1.03-5.45-36.59-5.45-37.79c0-1.7,2.22-3.05,2.22-3.05s-10.76-0.61-11.55,1.37c-0.79,1.98-5.03,19.94-13.55,28.74
		c-8.52-8.79-12.76-26.76-13.55-28.74c-0.79-1.98-11.55-1.37-11.55-1.37s2.22,1.35,2.22,3.05c0,1.2-5.29,36.76-5.45,37.79
		c-0.48,3.05-1.89,4.17-1.89,4.17h10.37C493.82,82.74,492.02,80.71,492.02,78.44z M601.03,82.9h10.79c0,0-1.66-1.84-1.66-3.75
		c0-0.78-0.16-7.86-0.18-15.97c0.03-8.3,0.18-20.92,0.18-21.7c0-1.92,1.66-3.75,1.66-3.75h-10.79c0,0,1.66,1.84,1.66,3.75
		c0,0.78,0.16,13.4,0.19,21.7c-0.03,8.11-0.19,15.19-0.19,15.97C602.69,81.06,601.03,82.9,601.03,82.9z M548.27,82.9h10.79
		c0,0-1.66-1.84-1.66-3.75c0-0.78-0.16-7.86-0.18-15.97c0.02-8.3,0.18-20.92,0.18-21.7c0-1.92,1.66-3.75,1.66-3.75h-10.79
		c0,0,1.66,1.84,1.66,3.75c0,0.78,0.16,13.4,0.19,21.7c-0.03,8.11-0.19,15.19-0.19,15.97C549.93,81.06,548.27,82.9,548.27,82.9z
		 M566.39,148.36c14.32,0,25.93-10.44,25.93-23.32c0-12.88-11.61-23.32-25.93-23.32c-14.32,0-25.94,10.44-25.94,23.32
		C540.45,137.92,552.07,148.36,566.39,148.36z M566.29,106.34c11.48,0,17.74,8.37,17.74,18.7s-6.26,18.7-17.74,18.7
		c-11.49,0-17.55-8.37-17.55-18.7S554.8,106.34,566.29,106.34z M660.1,107.72c-3.63,10.77-13.07,34.14-14.35,35.95
		c-2.92,4.06-4.67,4.26-4.67,4.26l12.18-0.38c0,0-2.69-1.29-2.4-4.51c0.04-0.31,2.29-6.19,4.9-12.98h17.96
		c1.99,4.98,3.77,9.53,4.29,11.07c1.32,3.95-0.16,6.8-0.16,6.8h11.67c0,0-2.37-1.46-5.89-8.5c-5.31-10.03-14.53-37.29-14.53-37.29
		h-8.75C660.34,102.15,661.1,104.75,660.1,107.72z M667.01,113.44c0,0,1.83,4.49,4,9.88c0,0,0.28,1.72-2.39,1.72h-7.85
		c-2.67,0-2.39-1.72-2.39-1.72s4.59-12.13,5.13-13.82C664.78,107.63,667.01,113.44,667.01,113.44z M545.08,274.37
		c-5.31-10.03-14.53-37.29-14.53-37.29h-8.75c0,0,0.76,2.61-0.25,5.58c-3.63,10.77-13.07,34.14-14.35,35.95
		c-2.91,4.06-4.67,4.26-4.67,4.26l12.19-0.38c0,0-2.69-1.28-2.4-4.51c0.04-0.3,2.29-6.19,4.89-12.97h17.97
		c1.99,4.98,3.77,9.53,4.28,11.07c1.32,3.95-0.16,6.8-0.16,6.8h11.67C550.98,282.87,548.6,281.41,545.08,274.37z M530.08,259.98
		h-7.85c-2.68,0-2.4-1.72-2.4-1.72s4.59-12.12,5.13-13.81c1.27-1.88,3.51,3.93,3.51,3.93s1.83,4.49,4.01,9.88
		C532.47,258.26,532.75,259.98,530.08,259.98z M613.74,236.18c-14.32,0-25.93,10.44-25.93,23.31c0,12.88,11.61,23.32,25.93,23.32
		c14.32,0,25.94-10.44,25.94-23.32C639.68,246.62,628.07,236.18,613.74,236.18z M613.65,278.2c-11.49,0-17.55-8.37-17.55-18.71
		c0-10.33,6.06-18.7,17.55-18.7c11.49,0,17.74,8.37,17.74,18.7C631.39,269.82,625.14,278.2,613.65,278.2z M581.77,207.43
		c-5.3-10.03-14.53-37.28-14.53-37.28h-8.76c0,0,0.76,2.61-0.25,5.58c-3.63,10.77-13.07,34.14-14.35,35.95
		c-2.91,4.06-4.67,4.26-4.67,4.26l12.18-0.38c0,0-2.69-1.29-2.4-4.51c0.04-0.31,2.29-6.19,4.89-12.98h17.96
		c1.99,4.98,3.77,9.53,4.28,11.07c1.32,3.95-0.16,6.8-0.16,6.8h11.67C587.66,215.94,585.29,214.48,581.77,207.43z M566.76,193.04
		h-7.85c-2.68,0-2.4-1.72-2.4-1.72s4.59-12.12,5.13-13.82c1.27-1.88,3.51,3.93,3.51,3.93s1.83,4.49,4,9.88
		C569.16,191.33,569.44,193.04,566.76,193.04z M563.91,276.29c0.17-10.43,0.5-30.5,0.5-32.21c0-2.32,0.72-7,0.72-7h-8.75
		c0,0,0.77,6.32,0.93,14.05c0.24,11.64-0.11,26.47-0.11,27.62c0,1.92-1.66,3.75-1.66,3.75h26.66c0,0,2.17-4.94,3.34-7.73
		C576.88,279.46,568.49,277.85,563.91,276.29z M453.79,216.07h9.03c0,0-2.83-2.5-2.83-4.35c-0.08-11.76-0.1-19.59-0.19-30.61
		c0,0,4.33,0.05,7.94,6.52c21.62,30.98,26.63,29.69,26.63,29.69s0.22-38.3,0.21-41.5c-0.01-3.21,2.42-4.6,2.42-4.6s-4.18,0-8.74,0
		c3.04,3.21,2.17,30.7,2.35,32.21c0.28,2.41-1.94,1.61-1.94,1.61l-26.5-33.88h-9.81c0,0,2.55,2.48,2.82,6.14
		c0.34,11.36,0,33.35,0,34.74C455.17,213.9,453.79,216.07,453.79,216.07z M492.86,236.87c0,0,2.7,1.29,2.4,4.51
		c-0.68,7.5-7.6,23.58-8.93,27.71c-1.9,5.9-5.53,1.96-5.53,1.96l-11.08-34.18h-8.82c0,0,13.87,34.8,15.51,39.7
		c1.64,4.89,8.49,7.07,8.49,7.07l17.85-46.76H492.86z M650.86,211.04c0.04-0.31,2.29-6.19,4.9-12.98h17.96
		c1.99,4.98,3.77,9.53,4.29,11.07c1.32,3.95-0.16,6.8-0.16,6.8h11.67c0,0-2.37-1.46-5.89-8.5c-5.31-10.03-14.53-37.28-14.53-37.28
		h-8.75c0,0,0.75,2.61-0.25,5.58c-3.63,10.77-13.07,34.14-14.35,35.95c-2.92,4.06-4.67,4.26-4.67,4.26l12.18-0.38
		C653.26,215.56,650.57,214.27,650.86,211.04z M658.37,191.32c0,0,4.59-12.12,5.13-13.82c1.27-1.88,3.51,3.93,3.51,3.93
		s1.83,4.49,4,9.88c0,0,0.28,1.72-2.39,1.72h-7.85C658.09,193.04,658.37,191.32,658.37,191.32z M707.85,276.63
		c-7.98,2.76-17.45,0.57-17.45,0.57v-17.19c2.94-0.29,7.06-0.24,11.08,1.34c-0.01-0.09,0-5.94,0-5.94H690.4v-13.02
		c0,0,7.79-2.29,15.18,0.63c-0.01-0.09,0-5.94,0-5.94h-23.8c0,0,1.62,1.6,1.62,3.2v39.91c0,0.4-0.14,0.78-0.33,1.12
		c-0.01-0.16-10.32-3.55-20.06-21.39c5.89-2.25,11.32-6.04,11.32-10.34c0-15.43-14.02-12.5-21.42-12.5h-8.59c0,0,1.62,1.6,1.62,3.2
		v39.91c0,1.39-1.62,2.57-1.62,2.57s5.45,0,10.02,0c0,0-1.77-0.91-1.77-2.51s0-18.17,0-18.17h0.05v-3.84
		c-0.02-0.01-0.04-0.01-0.05-0.02v-16.97c1.48-0.98,3.28-0.93,5.23-0.93c5.07,0,9.19,3.89,9.19,8.68c0.28,6.33-6.73,9.74-11.8,9.75
		l1.79,3.25c3.16,5.18,17.45,27.28,26.09,19.32c-0.47,0.84-1.28,1.44-1.28,1.44s16.32,0,20.55,0c3.14,0,2.64,0,5.93,0
		c1.41-0.48,2.97-5.44,2.68-7.75C709.75,276.01,708.41,276.34,707.85,276.63z M634.07,134.69c0.28,2.41-1.94,1.61-1.94,1.61
		l-26.5-33.88h-9.82c0,0,2.56,2.48,2.82,6.15c0.34,11.36,0,33.35,0,34.74c0,1.85-1.38,4.02-1.38,4.02h9.04c0,0-2.83-2.5-2.83-4.35
		c-0.08-11.76-0.09-19.59-0.19-30.61c0,0,4.33,0.04,7.94,6.52c21.62,30.98,26.63,29.68,26.63,29.68s0.22-38.29,0.21-41.5
		c-0.01-3.2,2.42-4.6,2.42-4.6s-4.18,0-8.74,0C634.75,105.67,633.89,133.17,634.07,134.69z M736.89,258.07
		c-5.01-2.84-15.75-2.71-15.51-11.23c0-1.41,0.07-3.58,2.63-4.8c8.7-4.1,13.81,1.58,17.59,1.55c-0.71-0.32-0.58-3.99-0.58-6
		c-2.06-0.83-5.6-1.43-11.32-1.43c-6.47,0-15.92,5.74-15.92,12.21c0.03,8.39,7.61,10.61,14.54,12.89c3.74,1.24,5.87,2.77,7.05,3.93
		c1.9,2.2,3.41,4.73,2.95,7.41c-0.72,5.37-14,9-24.45,1.44c0,2.56,0.45,5.37,2.08,7.53c6.99,1.59,9.84,1.11,13.75,1.22
		c10.48,0.32,15.91-6.47,15.91-12.94C746.34,261.48,736.89,258.07,736.89,258.07z M444.9,207.34c-5.3-10.03-14.53-37.29-14.53-37.29
		h-8.76c0,0,0.76,2.61-0.24,5.58c-3.63,10.77-13.07,34.14-14.35,35.95c-2.91,4.06-4.67,4.26-4.67,4.26l12.18-0.38
		c0,0-2.69-1.29-2.4-4.51c0.04-0.3,2.29-6.18,4.89-12.98H435c1.99,4.98,3.77,9.53,4.29,11.07c1.32,3.95-0.16,6.8-0.16,6.8h11.67
		C450.8,215.84,448.42,214.38,444.9,207.34z M429.9,192.94h-7.85c-2.68,0-2.4-1.72-2.4-1.72s4.59-12.12,5.14-13.82
		c1.27-1.88,3.51,3.93,3.51,3.93s1.83,4.49,4.01,9.89C432.29,191.23,432.57,192.94,429.9,192.94z M66.86,154.11
		c-0.68-15.85,3.46-32.62,17.38-33.64c4.93-0.36,11.2,0.16,18.75,4.91c-0.03-4.03,0.14-7.43,0.07-14.49
		c-3.74-0.87-9.3-1.45-17.36-1.58c-20.16,0-37.7,15.83-37.7,40.2c0,24.37,16.34,44.12,36.51,44.12c7.62,0,15.71-0.52,22.17-3.96
		c2.49-6.82,4.53-13.12,5.9-16.75c-8.22,6.2-15.48,7.74-21.48,7.89C75.14,181.22,67.19,165.45,66.86,154.11z M388.06,108.56
		c0.34,11.36,0,33.35,0,34.74c0,1.85-1.38,4.02-1.38,4.02h9.04c0,0-2.83-2.5-2.83-4.35c-0.09-11.76-0.1-19.59-0.19-30.61
		c0,0,4.33,0.04,7.94,6.52c21.62,30.98,26.62,29.68,26.62,29.68s0.22-38.29,0.21-41.5c-0.01-3.2,2.42-4.6,2.42-4.6s-4.18,0-8.74,0
		c3.04,3.2,2.17,30.69,2.35,32.21c0.28,2.41-1.94,1.61-1.94,1.61l-26.5-33.88h-9.82C385.24,102.41,387.8,104.9,388.06,108.56z
		 M364.87,215.56c0,0,16.32,0,20.55,0c4.23,0,10.76-5.24,10.41-13.93c-0.36-8.69-8.8-11.36-8.8-11.36s6-3.31,6.51-8.82
		c0.51-5.51-4.85-10.9-9.05-10.9c-2.54,0-19.62,0-19.62,0s1.62,0.94,1.62,2.54v39.9C366.49,214.38,364.87,215.56,364.87,215.56z
		 M374.19,181.68c0-3.98,0-6.57,0-6.57s5.75-0.47,7.53,0.09c5.53,1.74,5.56,4.86,5.56,7.06c0,1.99-0.21,3.57-5.82,5.85
		c-2.04,0.84-7.27,0.62-7.27,0.62S374.19,185.66,374.19,181.68z M374.19,201.88c0-4.87,0-8.84,0-8.84s6.99-1.16,11.37,1.15
		c3.29,1.74,5.6,5,5.6,7.7c0,2.44-0.42,6.68-4.35,8.04c-6.13,2.41-12.62,0.07-12.62,0.07S374.19,206.76,374.19,201.88z
		 M411.48,84.03c4.48,0,9.51,0.17,13.31-1.75c2.66-3.89,3.21-6.82,3.21-8c-4.84,3.46-9.11,4.91-12.63,5
		c-9.39,0.22-18.59-6.19-19.32-17.3c-0.59-12.67,7.1-19.31,15.29-19.87c9.46,0.95,11.75,2.52,13.9,5.04
		c-0.02-2.25,0.08-4.14,0.04-8.08c-2.2-0.49-8.35-1.99-13.09-2.06c-11.86,0-24.14,8.83-24.14,22.42
		C388.04,73.01,399.62,84.03,411.48,84.03z M480.93,147.94c0,0-2.37-1.46-5.9-8.5c-5.3-10.03-14.53-37.29-14.53-37.29h-8.76
		c0,0,0.76,2.61-0.24,5.58c-3.63,10.77-13.06,34.14-14.35,35.95c-2.92,4.06-4.67,4.26-4.67,4.26l12.19-0.38c0,0-2.69-1.29-2.4-4.51
		c0.04-0.31,2.29-6.19,4.9-12.98h17.96c1.99,4.98,3.77,9.53,4.29,11.07c1.31,3.95-0.16,6.8-0.16,6.8H480.93z M460.03,125.04h-7.85
		c-2.67,0-2.4-1.72-2.4-1.72s4.59-12.13,5.13-13.82c1.27-1.88,3.51,3.93,3.51,3.93s1.83,4.49,4.01,9.88
		C462.43,123.32,462.71,125.04,460.03,125.04z M283.62,119.18c-1.19,13.1-8.52,37.55-10.84,44.76c-3.32,10.32-5.94,3.67-5.94,3.67
		l-15.04-56.32h-20.98c0,0,20.39,60.83,23.25,69.39c2.87,8.55,18.71,12.36,18.71,12.36l23.96-81.75h-17.31
		C279.43,111.29,284.13,113.54,283.62,119.18z M436.62,276.63c-7.97,2.76-17.45,0.57-17.45,0.57v-17.19
		c2.94-0.29,7.06-0.24,11.08,1.34c-0.01-0.09,0-5.94,0-5.94h-11.08v-13.02c0,0,7.79-2.29,15.18,0.63c-0.01-0.09,0-5.94,0-5.94h-23.8
		c0,0,1.62,1.6,1.62,3.2v39.91c0,1.39-1.62,2.57-1.62,2.57s16.32,0,20.55,0c3.14,0,2.64,0,5.94,0c1.4-0.48,2.97-5.44,2.67-7.75
		C438.53,276.01,437.19,276.34,436.62,276.63z M382.67,237.75c-2.54,0-19.62,0-19.62,0s1.62,0.93,1.62,2.53v39.91
		c0,1.39-1.62,2.57-1.62,2.57s16.31,0,20.55,0c20.85,0,20.85-25.29,20.85-25.29S403.46,237.75,382.67,237.75z M396.98,258.97
		c-0.1,2.44-0.05,11.57-6.74,15.07c-7.9,5.89-18.56,3.16-18.56,3.16v-34.8c0,0,11.34-3.51,19.94,3.65
		C395.27,249.14,397.14,254.92,396.98,258.97z M221.31,145.81c0,0,10.51-5.8,11.39-15.44c0.89-9.64-8.49-19.08-15.84-19.08
		c-4.44,0-35.92,0-35.92,0s2.83,1.64,2.83,4.43v69.85c0,2.44-2.83,4.5-2.83,4.5s30.14,0,37.55,0c7.41,0,18.84-9.17,18.22-24.39
		C236.11,150.48,221.31,145.81,221.31,145.81z M202.38,130.78c0-6.96,0-8.98,0-8.98s5.52-0.97,8.12,1.01
		c3.7,2.83,3.28,5.13,3.28,8.98c0,3.48-1.65,7.57-4.94,9.59c-3.29,2.02-6.46,0.97-6.46,0.97S202.38,137.74,202.38,130.78z
		 M213.39,179.15c-4.03,2.49-11,1.19-11,1.19s0-5.66,0-14.2c0-8.53,0-13.46,0-13.46s5.89-1.25,9.44,0.6
		c4.41,2.29,7.21,8.14,7.21,12.86C219.04,170.41,217.42,176.67,213.39,179.15z M165.85,156.62c0.42,4.26-2.89,2.84-2.89,2.84
		l-30.71-48.17h-19.67c0,0,3.81,4.38,4.2,10.86c0.51,20.09,0,58.96,0,61.42c0,3.27-2.05,7.11-2.05,7.11h16.56
		c0,0-4.23-4.42-4.23-7.69c-0.06-9.23-0.29-40.27-0.29-40.27s3.36-3.46,8.74,7.97c24.03,47.2,39.69,42.19,39.69,42.19
		s0.32-67.7,0.31-73.36c-0.02-5.66,3.6-8.13,3.6-8.13s-9.99,0-16.78,0C166.87,117.05,165.59,153.93,165.85,156.62z"/>
</g>
</svg>
