<?xml version="1.0" encoding="utf-8"?>
<!-- Generator: Adobe Illustrator 22.0.0, SVG Export Plug-In . SVG Version: 6.00 Build 0)  -->
<svg version="1.1" id="Capa_1" xmlns="http://www.w3.org/2000/svg" xmlns:xlink="http://www.w3.org/1999/xlink" x="0px" y="0px"
	 viewBox="0 0 30 30" style="enable-background:new 0 0 30 30;" xml:space="preserve">
<style type="text/css">
	.st0{fill:#FFFFFF;}
</style>
<g id="Layer_2">
	<g id="LANDING">
		<g id="MENU">
			<path class="st0" d="M0,30l0.3-0.8c0.8-2.3,1.6-4.6,2.4-6.9c0-0.1,0-0.1,0-0.2c-1.5-2.6-2.2-5.5-2-8.5c0.2-2.6,1.1-5.2,2.6-7.3
				c2.1-3,5.3-5.1,8.8-5.9C13,0.1,14,0,15,0c2.9-0.1,5.8,0.7,8.3,2.3c3.1,1.9,5.3,5,6.2,8.5c0.3,1.2,0.5,2.4,0.5,3.6
				c0,2.4-0.5,4.7-1.6,6.8c-2.1,4.2-6.1,7.1-10.8,7.9c-3.2,0.5-6.5,0-9.4-1.6c-0.1,0-0.1,0-0.2,0l-7.2,2.3L0.1,30H0z M3.7,26.4
				L3.7,26.4l4.6-1.4c0.1,0,0.2,0,0.3,0c2.6,1.7,5.7,2.3,8.8,1.8c2.7-0.4,5.1-1.7,6.9-3.7c2.7-2.8,3.9-6.8,3.1-10.6
				c-0.7-3.8-3.1-7-6.6-8.7c-2.6-1.3-5.5-1.6-8.3-1C10,3.2,7.7,4.6,6,6.5c-3.8,4.3-4.1,10.6-0.8,15.2c0,0.1,0,0.1,0,0.2
				c-0.4,1.1-0.8,2.2-1.1,3.3C4,25.6,3.8,26,3.7,26.4z"/>
			<path class="st0" d="M19.3,21.5c-0.5,0-1-0.1-1.5-0.3c-1-0.3-2-0.7-3-1.2c-1-0.5-1.9-1.2-2.8-2c-0.9-0.9-1.8-1.9-2.5-2.9
				c-0.4-0.6-0.8-1.2-1.1-1.9c-0.3-0.6-0.4-1.4-0.4-2.1c0-1,0.4-1.9,1.1-2.7C9.5,8.2,10,8,10.5,7.9H11c0.3,0,0.5,0.1,0.6,0.3
				c0.1,0.1,0.2,0.3,0.2,0.5l1.1,2.6c0.1,0.2,0.1,0.4,0,0.6c-0.3,0.5-0.6,0.9-1,1.3c-0.2,0.2-0.2,0.5-0.1,0.7c0,0,0,0,0,0
				c0.9,1.6,2.3,2.9,3.9,3.8c0.4,0.2,0.7,0.4,1.1,0.5c0.2,0.1,0.5,0.1,0.7-0.2c0.4-0.5,0.8-0.9,1.1-1.4c0.1-0.2,0.4-0.3,0.6-0.2
				c0.4,0.1,0.7,0.3,1,0.4l2,1c0.2,0.1,0.4,0.3,0.4,0.5c0,0.5-0.1,1-0.3,1.5c-0.1,0.2-0.2,0.4-0.4,0.5c-0.5,0.5-1.1,0.8-1.8,1
				C19.9,21.4,19.6,21.5,19.3,21.5z"/>
		</g>
	</g>
</g>
</svg>
