<svg xmlns="http://www.w3.org/2000/svg" viewBox="0 0 118.06 30"><g id="Layer_2" data-name="Layer 2"><g id="LANDING"><g id="FOOTER"><path d="M48.26,6.67H36.37V9.3h4.49V23.49h2.9V9.3h4.5ZM6.54,23.49h10.9V20.72h-8v-4.4h6.82V13.69H9.44V9.43h8V6.67H6.54ZM24.71,6.67H18.77V23.49c3.15.15,10.05.34,11.07-2.82C31.9,16.75,31.57,6.14,24.71,6.67Zm2.6,12.71c-.93,1.74-3.93,1.3-5.64,1.34V9.43c1.73.08,4.54-.46,5.53,1.3C28.15,11.13,28.14,19,27.31,19.38Zm5.39,4.11h2.91V6.67H32.7ZM112.26,0H0V30H118.06V9.92Zm4,28.2H1.8V1.8H111.07l5.2,8.89ZM105.46,6.67h-2.37L97.44,22.21l-5.16-8.84,5.43-6.7H94.23l-6.49,8.12V6.67H84.83V23.49h2.91V18.36l2.63-2.75,4.39,7.88h5.29l1.27-3.67h5.92l1.27,3.67h3.07C111.53,23.35,105.51,6.79,105.46,6.67ZM102.17,17.2l2.11-6.37,2.1,6.37ZM60,9.3h4.49V23.49h2.9V9.3h4.5V6.67H60ZM54.11,6.53c-5.44,1.08-6,2.27-6.06,8.55.1,6.28.62,7.47,6.06,8.55,5.44-1.09,6-2.27,6.06-8.55C60.07,8.8,59.54,7.61,54.11,6.53ZM56.48,19.6c-3,2.64-6.09.6-5.53-4.52-.56-5.12,2.57-7.17,5.53-4.53C57.52,10.54,57.52,19.61,56.48,19.6ZM72.6,23.49H83.5V20.72h-8v-4.4h6.82V13.69H75.51V9.43h8V6.67H72.6Z"/></g></g></g></svg>