<svg xmlns="http://www.w3.org/2000/svg" viewBox="0 0 1920 35"><defs><style>.cls-1{fill:blue;}</style></defs><g id="Layer_2" data-name="Layer 2"><g id="INVIERTE"><path class="cls-1" d="M1622.17,16a17,17,0,0,0-33.75,0H1401.75a17,17,0,0,0-33.9,0H1143.14a17,17,0,0,0-33.9,0H849.7a17,17,0,0,0-33.9,0h-277a17,17,0,0,0-33.9,0H305.25a17,17,0,0,0-33.9,0H0v2H271.35a17,17,0,0,0,33.9,0H504.91a17,17,0,0,0,33.9,0h277a17,17,0,0,0,33.9,0h259.54a17,17,0,0,0,33.9,0h224.71a17,17,0,0,0,33.9,0H1588.3a17,17,0,0,0,34,0H1920V16Z"/></g></g></svg>