<?xml version="1.0" encoding="utf-8"?>
<!-- Generator: Adobe Illustrator 24.1.0, SVG Export Plug-In . SVG Version: 6.00 Build 0)  -->
<svg version="1.1" xmlns="http://www.w3.org/2000/svg" xmlns:xlink="http://www.w3.org/1999/xlink" x="0px" y="0px"
	 viewBox="0 0 133.22 40" style="enable-background:new 0 0 133.22 40;" xml:space="preserve">
<style type="text/css">
	.st0{fill:#0A203C;}
	.st1{fill:#0000FF;}
</style>
<g id="Layer_1">
	<g id="Layer_2_1_">
		<g id="LANDING">
			<g id="MENU">
				<g id="LOGOTIPO">
					<polygon class="st0" points="49.67,11.97 49.67,28.05 51.06,28.05 51.06,20.72 58.82,20.72 58.82,19.34 51.06,19.34 
						51.06,13.37 60,13.37 60,11.98 51.06,11.98 51.06,11.97 					"/>
					<polygon class="st0" points="120.1,11.94 120.1,13.32 126.1,13.32 126.1,28.02 127.49,28.02 127.49,13.32 133.22,13.32 
						133.22,11.94 					"/>
					<polygon class="st0" points="104.22,20.23 112.58,20.23 112.58,18.84 104.22,18.84 104.22,13.4 113.47,13.4 113.47,12.01 
						102.83,12.01 102.83,13.4 102.83,28.07 104.22,28.07 104.22,28.06 113.7,28.06 113.7,26.67 104.22,26.67 					"/>
					<polygon class="st0" points="92.65,25.81 81.66,11.96 81.66,11.96 81.66,11.96 81.66,11.96 81.66,11.96 80.27,11.96 
						80.27,28.05 81.66,28.05 81.66,14.19 92.66,28.06 92.68,28.04 94.04,28.04 94.04,11.94 92.65,11.94 					"/>
					<rect x="68.74" y="11.97" class="st0" width="1.39" height="16.08"/>
					<path class="st1" d="M15.81,33.85V14.79c0.01-0.69-0.55-1.25-1.24-1.26c0,0-0.01,0-0.01,0h-2.65
						c-0.69-0.01-1.25,0.55-1.26,1.24c0,0.01,0,0.01,0,0.02v24c0.02,0.68,0.58,1.22,1.26,1.21h24c0.69,0,1.25-0.56,1.25-1.25V1.26
						C37.17,0.57,36.61,0,35.92,0c-0.35,0-0.68,0.14-0.92,0.39L32.45,3l-0.14,0.15l0,0C32.16,3.3,32.05,3.49,32,3.7
						c-0.02,0.12-0.02,0.24,0,0.36c0,2,0.1,28.78,0,29.63c-0.09,0.64-0.63,1.12-1.28,1.12H17.11c-0.6,0-1.12-0.41-1.26-1"/>
					<path class="st1" d="M5.18,36.9V7.75c0.17-0.54,0.67-0.91,1.24-0.92h13.63c0.6,0,1.12,0.42,1.26,1V27
						c0,0.69,0.56,1.25,1.25,1.25h2.65c0.69,0.01,1.25-0.55,1.26-1.24c0,0,0-0.01,0-0.01V2.88c0-0.69-0.56-1.25-1.25-1.25
						c0,0-0.01,0-0.01,0h-24C0.54,1.65,0,2.2,0,2.88v2.65c-0.01,0.08-0.01,0.15,0,0.23V36.9c0,0.81,0.66,1.47,1.47,1.47c0,0,0,0,0,0
						h2.24C4.52,38.37,5.18,37.71,5.18,36.9L5.18,36.9"/>
				</g>
			</g>
		</g>
	</g>
</g>
<g id="Capa_1">
</g>
<g id="LANDING_1_">
</g>
</svg>
