<?xml version="1.0" encoding="utf-8"?>
<!-- Generator: Adobe Illustrator 24.1.0, SVG Export Plug-In . SVG Version: 6.00 Build 0)  -->
<svg version="1.1" id="Layer_1" xmlns="http://www.w3.org/2000/svg" xmlns:xlink="http://www.w3.org/1999/xlink" x="0px" y="0px"
	 viewBox="0 0 118 30.07" style="enable-background:new 0 0 118 30.07;" xml:space="preserve">
<style type="text/css">
	.st0{fill:#FFFFFF;}
</style>
<path class="st0" d="M48.23,6.66H36.35v2.63h4.49v14.18h2.9V9.29h4.49V6.66z M6.53,23.47h10.89v-2.76H9.44v-4.4h6.82v-2.63H9.44
	V9.43h7.99V6.66H6.53V23.47z M24.7,6.66h-5.94v16.81h5.78c3.04,0,4.62-1.76,5.29-2.81c0.76-1.19,0.95-1.89,0.95-5.59
	c0-3.44-0.06-4.1-0.9-5.54C28.79,7.68,26.95,6.66,24.7,6.66z M27.29,19.37c-0.61,0.9-1.55,1.34-2.87,1.34h-2.76V9.43h2.76
	c1.32,0,2.06,0.35,2.76,1.3c0.64,0.86,0.7,1.55,0.7,4.44C27.88,18.15,27.82,18.59,27.29,19.37z M32.69,23.47h2.9V6.66h-2.9V23.47z
	 M112.2,0H0v29.98h118V9.92L112.2,0z M116.21,28.19H1.79V1.79h109.21l5.2,8.89V28.19z M105.4,6.66h-2.36l-5.65,15.53l-5.16-8.83
	l5.43-6.7h-3.48l-6.48,8.12V6.66h-2.9v16.81h2.9v-5.12l2.63-2.75l4.39,7.87h2.22h1.21H100l1.27-3.66h5.92l1.27,3.66h3.07L105.45,6.8
	L105.4,6.66z M102.12,17.19l2.11-6.36l2.11,6.36H102.12z M59.93,9.29h4.49v14.18h2.9V9.29h4.49V6.66H59.93V9.29z M54.08,6.53
	c-2.68,0-4.51,1.58-5.32,3.06c-0.56,1.03-0.74,1.54-0.74,5.49s0.18,4.46,0.74,5.49c0.81,1.48,2.63,3.06,5.32,3.06
	c2.68,0,4.51-1.58,5.32-3.06c0.56-1.03,0.74-1.54,0.74-5.49s-0.18-4.46-0.74-5.49C58.59,8.1,56.76,6.53,54.08,6.53z M56.45,19.59
	c-0.33,0.42-1.07,1.12-2.37,1.12s-2.04-0.7-2.37-1.12c-0.6-0.77-0.78-1.17-0.78-4.52c0-3.35,0.19-3.76,0.78-4.52
	c0.33-0.42,1.07-1.12,2.37-1.12s2.04,0.7,2.37,1.12c0.6,0.77,0.78,1.17,0.78,4.52C57.23,18.42,57.04,18.83,56.45,19.59z
	 M72.56,23.47h10.89v-2.76h-7.99v-4.4h6.82v-2.63h-6.82V9.43h7.99V6.66H72.56V23.47z"/>
</svg>
