<?xml version="1.0" encoding="utf-8"?>
<!-- Generator: Adobe Illustrator 24.1.0, SVG Export Plug-In . SVG Version: 6.00 Build 0)  -->
<svg version="1.1" id="Layer_1" xmlns="http://www.w3.org/2000/svg" xmlns:xlink="http://www.w3.org/1999/xlink" x="0px" y="0px"
	 viewBox="0 0 627.53 329.03" style="enable-background:new 0 0 627.53 329.03;" xml:space="preserve">
<style type="text/css">
	.st0{fill:url(#SVGID_1_);}
	.st1{fill:url(#SVGID_2_);}
	.st2{fill:url(#SVGID_3_);}
	.st3{fill:#FFFFFF;}
</style>
<g>
	<radialGradient id="SVGID_1_" cx="421.13" cy="28.6394" r="135.735" gradientUnits="userSpaceOnUse">
		<stop  offset="0" style="stop-color:#FFFFFF"/>
		<stop  offset="1" style="stop-color:#FFFFFF;stop-opacity:0"/>
	</radialGradient>
	<path class="st0" d="M488.11,102.21c0,56.45-45.76,102.21-102.22,102.21c-56.45,0-102.21-45.76-102.21-102.21
		C283.68,45.76,329.44,0,385.89,0C442.35,0,488.11,45.76,488.11,102.21z"/>
	<radialGradient id="SVGID_2_" cx="276.3233" cy="28.6394" r="135.735" gradientUnits="userSpaceOnUse">
		<stop  offset="0" style="stop-color:#FFFFFF"/>
		<stop  offset="1" style="stop-color:#FFFFFF;stop-opacity:0"/>
	</radialGradient>
	<path class="st1" d="M343.3,102.21c0,56.45-45.76,102.21-102.21,102.21c-56.45,0-102.21-45.76-102.21-102.21
		C138.88,45.76,184.63,0,241.09,0C297.54,0,343.3,45.76,343.3,102.21z"/>
	<radialGradient id="SVGID_3_" cx="340.8148" cy="50.6938" r="100.7685" gradientUnits="userSpaceOnUse">
		<stop  offset="0" style="stop-color:#FFFFFF"/>
		<stop  offset="1" style="stop-color:#FFFFFF;stop-opacity:0"/>
	</radialGradient>
	<path class="st2" d="M390.54,105.31c0,41.91-33.97,75.88-75.88,75.88c-41.91,0-75.88-33.97-75.88-75.88
		c0-41.91,33.97-75.88,75.88-75.88C356.56,29.43,390.54,63.41,390.54,105.31z"/>
</g>
<path class="st3" d="M522.22,119.12h-34.45v-10.88h24.48v-9.07h-24.48v-6.35h34.45V82.4h-55.3v45.78h55.3V119.12z M530.32,128.18
	h20.85v-19.94h24.48v-9.07h-24.48v-6.35h34.46V82.4h-55.31V128.18z M436.97,118.09c-1.58,0.92-3.82,1.38-6.73,1.38
	c-3.89,0-6.89-0.9-8.99-2.68c-1.29-1.1-2.15-1.89-2.56-4h-19.28c0.57,4.47,3,8.15,7.31,11.05c4.31,2.9,12.05,4.35,23.24,4.35
	c6.37,0,11.66-0.62,15.84-1.86c4.19-1.24,7.45-3.06,9.78-5.46c2.33-2.4,3.5-5.01,3.5-7.85c0-2.42-0.88-4.61-2.63-6.55
	c-1.75-1.96-4.55-3.59-8.39-4.91c-3.84-1.32-10.2-2.62-19.09-3.91c-3.59-0.51-5.86-1.05-6.82-1.63c-0.99-0.56-1.48-1.2-1.48-1.9
	c0-0.97,0.6-1.79,1.79-2.46c1.2-0.67,2.99-1.01,5.36-1.01c2.88,0,5.14,0.45,6.77,1.36c1.64,0.91,2.71,1.6,3.22,3.6h19.12
	c-0.85-4.59-3.47-7.94-7.88-10.05c-4.41-2.1-10.84-3.16-19.23-3.16c-6.85,0-12.25,0.58-16.19,1.73c-3.93,1.16-6.88,2.75-8.84,4.77
	c-1.96,2.02-2.94,4.17-2.94,6.44c0,3.46,1.92,6.31,5.75,8.54c3.8,2.23,10.16,4.03,19.07,5.37c5.44,0.81,8.92,1.66,10.4,2.57
	c1.5,0.9,2.24,1.93,2.24,3.08C439.33,116.12,438.53,117.18,436.97,118.09z M64.96,125.52c4.71,1.38,10.76,2.07,18.19,2.07
	c6.12,0,11.16-0.57,15.11-1.7c3.95-1.13,7.28-2.81,9.95-5.04c2.66-2.23,4.62-6.06,5.87-9.38H93.54c-0.93,2.77-0.16,1.51-2.45,3.8
	c-1.79,1.78-5.12,2.18-9.16,2.18c-4.17,0-7.4-0.9-9.71-2.69c-2.3-1.79-3.45-5.11-3.45-9.95c0-3.91,0.96-6.77,2.89-8.6
	c2.55-2.46,6.21-3.69,10.99-3.69c2.11,0,4.02,0.28,5.73,0.83c1.71,0.56,3.15,1.35,4.33,2.38c0.71,0.61,1.4,1.59,2.05,2.91
	l19.01-0.35c-2.39-4.62-6.41-10.34-11.33-12.57c-4.92-2.23-11.68-3.35-20.28-3.35c-10.99,0-19.48,1.94-25.49,5.83
	c-6,3.89-9.01,9.44-9.01,16.68c0,5.43,1.71,9.88,5.12,13.35C56.2,121.71,60.26,124.13,64.96,125.52z M135.27,125.71
	c4.75,1.59,10.74,2.39,17.98,2.39c7.12,0,13.07-0.92,17.85-2.77c4.76-1.84,8.42-4.42,10.95-7.74c2.52-3.32,3.78-7.57,3.78-12.75
	c0-7.14-2.9-12.69-8.67-16.65c-5.79-3.96-14.02-5.94-24.71-5.94c-10.42,0-18.55,2.02-24.4,6.05c-5.83,4.03-8.75,9.67-8.75,16.91
	c0,5.18,1.48,9.5,4.42,12.95C126.67,121.61,130.52,124.12,135.27,125.71z M142.78,95.57c2.42-1.95,5.63-2.93,9.63-2.93
	c4.17,0,7.48,0.96,9.91,2.88c2.44,1.92,3.66,4.97,3.66,9.13c0,4.95-1.17,8.38-3.51,10.29c-2.34,1.91-5.63,2.87-9.88,2.87
	c-4.14,0-7.42-0.98-9.82-2.93c-2.41-1.95-3.61-5.17-3.61-9.63C139.15,100.75,140.36,97.52,142.78,95.57z M213.37,103.23l22.71,24.87
	h17.6V82.97h-17.6v25l-22.84-25h-17.47v45.13h17.6V103.23z M306.62,126.95c3.25-0.6,6.3-1.8,9.15-3.61
	c2.84-1.81,5.05-4.05,6.66-6.73c1.59-2.68,2.4-6.44,2.4-11.3c0-3.1-0.54-6.03-1.61-8.8c-1.08-2.77-2.81-5.2-5.2-7.28
	c-2.39-2.09-5.42-3.69-9.08-4.8c-3.66-1.12-8.46-1.67-14.41-1.67h-30.17v45.43h30.17C298.12,128.18,302.16,127.77,306.62,126.95z
	 M284.66,117.87v-24.8h5.07c5.26,0,9.02,0.89,11.29,2.66c2.27,1.78,3.41,5.07,3.41,9.88c0,3.63-0.51,6.26-1.52,7.88
	c-1.02,1.62-2.42,2.76-4.21,3.41c-1.79,0.65-4.81,0.97-9.05,0.97H284.66z M338.27,122.01c1.96,1.67,4.11,2.95,6.46,3.85
	c2.37,0.9,5.29,1.5,8.8,1.81c3.5,0.3,6.74,0.46,9.7,0.46c5.13,0,9.52-0.5,13.18-1.49c2.63-0.71,5.15-1.94,7.55-3.69
	c2.4-1.75,4.16-3.8,5.27-6.15c1.12-2.34,1.68-4.83,1.68-7.46V82.75h-18.75v27.22c0,2.48-0.92,4.38-2.76,5.73
	c-1.85,1.35-4.41,2.02-7.66,2.02c-3.27,0-5.84-0.68-7.69-2.05c-1.84-1.37-2.78-3.27-2.78-5.7V82.75h-18.75v26.58
	c0,2.19,0.58,4.71,1.75,7.54C334.98,118.64,336.31,120.35,338.27,122.01z M14.9,238.93c-0.97,0.86-2.13,1.29-3.48,1.29
	c-1.84,0-3.32-0.68-4.47-2.03c-1.15-1.35-1.72-3.62-1.72-6.81c0-3,0.58-5.18,1.75-6.52c1.16-1.34,2.68-2.02,4.55-2.02
	c1.35,0,2.5,0.38,3.44,1.13c0.95,0.76,1.57,1.79,1.87,3.09l5.04-1.21c-0.57-2.01-1.43-3.55-2.58-4.63
	c-1.92-1.82-4.43-2.73-7.52-2.73c-3.52,0-6.38,1.16-8.54,3.48C1.09,224.3,0,227.56,0,231.75c0,3.97,1.08,7.1,3.23,9.38
	c2.15,2.29,4.9,3.43,8.25,3.43c2.7,0,4.93-0.67,6.69-2c1.76-1.33,3.02-3.38,3.78-6.13L17,234.86
	C16.58,236.71,15.88,238.07,14.9,238.93z M34.56,225.46c-1.79,0-3.4,0.4-4.86,1.19c-1.45,0.79-2.58,1.94-3.36,3.44
	c-0.79,1.5-1.19,3.05-1.19,4.66c0,2.1,0.4,3.88,1.19,5.34c0.79,1.46,1.95,2.57,3.47,3.33c1.52,0.76,3.12,1.14,4.79,1.14
	c2.7,0,4.95-0.91,6.73-2.73c1.78-1.81,2.67-4.11,2.67-6.87c0-2.74-0.88-5.01-2.65-6.8C39.58,226.36,37.32,225.46,34.56,225.46z
	 M37.75,239.17c-0.86,0.97-1.92,1.45-3.18,1.45c-1.27,0-2.33-0.48-3.19-1.45c-0.86-0.96-1.29-2.35-1.29-4.17
	c0-1.81,0.43-3.21,1.29-4.17c0.86-0.97,1.93-1.45,3.19-1.45c1.26,0,2.32,0.48,3.18,1.45c0.86,0.96,1.29,2.34,1.29,4.13
	C39.04,236.8,38.61,238.21,37.75,239.17z M74.22,244.13v-11.67c0-1.74-0.17-3-0.5-3.78c-0.46-1.05-1.15-1.86-2.08-2.4
	c-0.92-0.54-2.06-0.82-3.4-0.82c-1.06,0-2.04,0.24-2.97,0.72c-0.93,0.48-1.79,1.21-2.59,2.18c-0.55-0.97-1.26-1.7-2.11-2.18
	c-0.86-0.48-1.87-0.72-3.04-0.72c-2.2,0-4.1,0.97-5.69,2.91v-2.49H47.4v18.25h4.82v-8.87c0-1.75,0.13-3.01,0.39-3.76
	c0.26-0.76,0.68-1.34,1.28-1.74c0.59-0.4,1.27-0.6,2.01-0.6c0.61,0,1.11,0.13,1.47,0.38c0.36,0.25,0.63,0.64,0.8,1.15
	c0.17,0.51,0.26,1.66,0.26,3.44v10.01h4.82v-8.77c0-1.72,0.13-2.98,0.39-3.78c0.26-0.8,0.69-1.4,1.29-1.81
	c0.6-0.41,1.23-0.62,1.91-0.62c0.92,0,1.61,0.35,2.06,1.03c0.33,0.53,0.5,1.7,0.5,3.51v10.44H74.22z M83.87,218.93h-4.82v4.46h4.82
	V218.93z M79.04,244.13h4.82v-18.25h-4.82V244.13z M104.17,238.42c0-1.54-0.5-2.73-1.51-3.59c-1.02-0.85-2.82-1.56-5.38-2.15
	c-2.57-0.59-4.07-1.04-4.51-1.36c-0.32-0.24-0.48-0.53-0.48-0.88c0-0.4,0.19-0.73,0.55-0.98c0.55-0.36,1.46-0.54,2.73-0.54
	c1.01,0,1.78,0.19,2.33,0.57c0.54,0.38,0.91,0.92,1.1,1.63l4.56-0.83c-0.46-1.59-1.29-2.8-2.51-3.62c-1.22-0.81-3.07-1.22-5.57-1.22
	c-2.62,0-4.55,0.54-5.8,1.62c-1.25,1.08-1.88,2.41-1.88,3.99c0,1.75,0.72,3.12,2.17,4.11c1.04,0.71,3.51,1.49,7.4,2.35
	c0.83,0.2,1.37,0.41,1.61,0.63c0.23,0.24,0.34,0.55,0.34,0.91c0,0.54-0.21,0.97-0.64,1.29c-0.63,0.46-1.57,0.69-2.82,0.69
	c-1.14,0-2.02-0.24-2.65-0.73c-0.64-0.49-1.05-1.2-1.26-2.14l-4.84,0.73c0.45,1.74,1.4,3.11,2.85,4.12c1.45,1.01,3.41,1.52,5.9,1.52
	c2.74,0,4.8-0.6,6.2-1.81C103.48,241.54,104.17,240.09,104.17,238.42z M113.21,218.93h-4.82v4.46h4.82V218.93z M108.39,244.13h4.82
	v-18.25h-4.82V244.13z M127.31,223.51l4.72-5.14h-5.4l-2.38,5.14H127.31z M121.71,243.41c1.52,0.76,3.11,1.14,4.79,1.14
	c2.71,0,4.95-0.91,6.73-2.73c1.78-1.81,2.67-4.11,2.67-6.87c0-2.74-0.88-5.01-2.65-6.8c-1.77-1.79-4.03-2.69-6.79-2.69
	c-1.79,0-3.41,0.4-4.86,1.19c-1.45,0.79-2.57,1.94-3.36,3.44c-0.79,1.5-1.18,3.05-1.18,4.66c0,2.1,0.39,3.88,1.18,5.34
	C119.03,241.54,120.18,242.65,121.71,243.41z M123.29,230.83c0.86-0.97,1.92-1.45,3.19-1.45s2.33,0.48,3.18,1.45
	c0.85,0.96,1.29,2.34,1.29,4.13c0,1.84-0.43,3.24-1.29,4.2c-0.85,0.97-1.91,1.45-3.18,1.45s-2.33-0.48-3.19-1.45
	c-0.86-0.96-1.29-2.35-1.29-4.17C121.99,233.19,122.42,231.8,123.29,230.83z M156.26,244.13v-11.34c0-1.41-0.09-2.49-0.26-3.25
	c-0.18-0.75-0.49-1.43-0.95-2.03c-0.46-0.6-1.12-1.09-2-1.47c-0.88-0.38-1.86-0.58-2.93-0.58c-2.42,0-4.42,1.03-6.02,3.1v-2.68
	h-4.48v18.25h4.82v-8.27c0-2.04,0.13-3.44,0.37-4.2c0.25-0.76,0.71-1.37,1.38-1.82c0.66-0.46,1.42-0.69,2.26-0.69
	c0.65,0,1.21,0.16,1.68,0.48c0.46,0.32,0.8,0.77,1.01,1.35c0.21,0.58,0.31,1.85,0.31,3.83v9.32H156.26z M191,244.13v-25.19h-4.7
	v16.89l-10.35-16.89h-4.93v25.19h4.7V227.6l10.2,16.53H191z M201.73,233.39c-1.68,0.32-2.96,0.7-3.85,1.12
	c-0.89,0.43-1.58,1.05-2.07,1.86c-0.5,0.81-0.74,1.73-0.74,2.76c0,1.56,0.54,2.85,1.62,3.87c1.08,1.02,2.57,1.53,4.44,1.53
	c1.07,0,2.07-0.2,3.01-0.6c0.94-0.41,1.82-1.01,2.65-1.81c0.03,0.09,0.09,0.28,0.17,0.57c0.18,0.63,0.34,1.1,0.46,1.43h4.78
	c-0.42-0.87-0.7-1.68-0.86-2.45c-0.16-0.76-0.23-1.95-0.23-3.55l0.06-5.64c0-2.09-0.21-3.54-0.64-4.32
	c-0.43-0.79-1.17-1.43-2.23-1.94c-1.05-0.51-2.66-0.77-4.82-0.77c-2.38,0-4.17,0.43-5.37,1.27c-1.2,0.85-2.05,2.15-2.55,3.91
	l4.38,0.79c0.3-0.85,0.69-1.44,1.17-1.78c0.48-0.33,1.16-0.5,2.02-0.5c1.28,0,2.14,0.2,2.61,0.59c0.46,0.39,0.68,1.05,0.68,1.98
	v0.48C205.56,232.57,203.99,232.97,201.73,233.39z M206.43,236.32c0,1.15-0.06,1.94-0.19,2.35c-0.18,0.63-0.57,1.16-1.16,1.6
	c-0.8,0.57-1.63,0.86-2.51,0.86c-0.78,0-1.43-0.25-1.93-0.74c-0.5-0.49-0.76-1.08-0.76-1.75c0-0.69,0.32-1.25,0.95-1.7
	c0.42-0.27,1.3-0.55,2.65-0.84c1.34-0.29,2.33-0.54,2.95-0.74V236.32z M229.24,242.88c1.4-1.11,2.34-2.75,2.84-4.92l-4.74-0.81
	c-0.24,1.27-0.65,2.16-1.24,2.69c-0.59,0.52-1.34,0.79-2.26,0.79c-1.23,0-2.21-0.45-2.94-1.35c-0.73-0.9-1.09-2.43-1.09-4.6
	c0-1.95,0.36-3.35,1.08-4.18c0.71-0.83,1.68-1.25,2.89-1.25c0.91,0,1.65,0.24,2.22,0.72c0.57,0.48,0.94,1.2,1.1,2.15l4.76-0.86
	c-0.58-1.96-1.52-3.42-2.83-4.38c-1.31-0.96-3.08-1.44-5.3-1.44c-2.72,0-4.87,0.84-6.46,2.52c-1.6,1.68-2.39,4.03-2.39,7.04
	c0,2.98,0.79,5.31,2.38,7c1.59,1.68,3.72,2.53,6.39,2.53C225.96,244.55,227.84,243.99,229.24,242.88z M235.47,244.13h4.82v-18.25
	h-4.82V244.13z M235.47,223.4h4.82v-4.46h-4.82V223.4z M253.58,244.55c2.7,0,4.95-0.91,6.73-2.73c1.78-1.81,2.67-4.11,2.67-6.87
	c0-2.74-0.88-5.01-2.65-6.8c-1.77-1.79-4.03-2.69-6.8-2.69c-1.78,0-3.4,0.4-4.86,1.19c-1.45,0.79-2.58,1.94-3.36,3.44
	c-0.79,1.5-1.19,3.05-1.19,4.66c0,2.1,0.4,3.88,1.19,5.34c0.79,1.46,1.95,2.57,3.47,3.33C250.31,244.16,251.91,244.55,253.58,244.55
	z M250.37,230.83c0.86-0.97,1.93-1.45,3.19-1.45c1.26,0,2.32,0.48,3.18,1.45c0.86,0.96,1.29,2.34,1.29,4.13
	c0,1.84-0.43,3.24-1.29,4.2c-0.86,0.97-1.92,1.45-3.18,1.45c-1.26,0-2.33-0.48-3.19-1.45c-0.86-0.96-1.29-2.35-1.29-4.17
	C249.08,233.19,249.51,231.8,250.37,230.83z M283.35,244.13v-11.34c0-1.41-0.09-2.49-0.27-3.25c-0.18-0.75-0.5-1.43-0.95-2.03
	c-0.45-0.6-1.12-1.09-2-1.47c-0.88-0.38-1.86-0.58-2.92-0.58c-2.42,0-4.43,1.03-6.02,3.1v-2.68h-4.49v18.25h4.82v-8.27
	c0-2.04,0.12-3.44,0.37-4.2c0.25-0.76,0.7-1.37,1.37-1.82c0.66-0.46,1.42-0.69,2.26-0.69c0.65,0,1.22,0.16,1.68,0.48
	c0.47,0.32,0.8,0.77,1.01,1.35c0.2,0.58,0.31,1.85,0.31,3.83v9.32H283.35z M304.11,244.13c-0.42-0.87-0.71-1.68-0.86-2.45
	c-0.16-0.76-0.23-1.95-0.23-3.55l0.06-5.64c0-2.09-0.21-3.54-0.64-4.32c-0.43-0.79-1.17-1.43-2.23-1.94
	c-1.06-0.51-2.67-0.77-4.82-0.77c-2.38,0-4.17,0.43-5.38,1.27c-1.2,0.85-2.05,2.15-2.54,3.91l4.38,0.79
	c0.3-0.85,0.69-1.44,1.18-1.78c0.48-0.33,1.15-0.5,2.01-0.5c1.28,0,2.15,0.2,2.61,0.59c0.46,0.39,0.69,1.05,0.69,1.98v0.48
	c-0.87,0.37-2.44,0.76-4.7,1.19c-1.67,0.32-2.96,0.7-3.85,1.12c-0.89,0.43-1.58,1.05-2.08,1.86c-0.49,0.81-0.74,1.73-0.74,2.76
	c0,1.56,0.54,2.85,1.62,3.87c1.09,1.02,2.57,1.53,4.45,1.53c1.07,0,2.07-0.2,3.01-0.6c0.94-0.41,1.82-1.01,2.65-1.81
	c0.04,0.09,0.09,0.28,0.17,0.57c0.18,0.63,0.34,1.1,0.46,1.43H304.11z M298.33,236.32c0,1.15-0.06,1.94-0.19,2.35
	c-0.18,0.63-0.57,1.16-1.15,1.6c-0.8,0.57-1.63,0.86-2.51,0.86c-0.78,0-1.43-0.25-1.93-0.74c-0.5-0.49-0.76-1.08-0.76-1.75
	c0-0.69,0.32-1.25,0.95-1.7c0.42-0.27,1.3-0.55,2.65-0.84c1.34-0.29,2.33-0.54,2.95-0.74V236.32z M312.62,218.93h-4.82v25.19h4.82
	V218.93z M332.03,241.88c0.91,0.97,1.78,1.66,2.6,2.06c0.82,0.4,1.73,0.6,2.75,0.6c2.12,0,3.93-0.85,5.42-2.54
	c1.5-1.69,2.24-4.06,2.24-7.11c0-2.97-0.74-5.28-2.23-6.95c-1.48-1.66-3.28-2.49-5.41-2.49c-1.22,0-2.32,0.29-3.32,0.86
	c-1,0.57-1.8,1.32-2.38,2.23v-2.68h-4.5v25.19h4.82V241.88z M333.16,230.64c0.78-0.91,1.76-1.37,2.95-1.37
	c1.14,0,2.1,0.46,2.86,1.39c0.77,0.93,1.16,2.35,1.16,4.27c0,2.06-0.37,3.53-1.12,4.43c-0.75,0.9-1.68,1.35-2.82,1.35
	c-1.17,0-2.17-0.49-2.99-1.47c-0.82-0.98-1.23-2.5-1.23-4.55C331.98,232.9,332.37,231.55,333.16,230.64z M356.66,243.94
	c0.94-0.41,1.82-1.01,2.65-1.81c0.03,0.09,0.09,0.28,0.16,0.57c0.19,0.63,0.34,1.1,0.47,1.43h4.78c-0.42-0.87-0.71-1.68-0.86-2.45
	c-0.15-0.76-0.23-1.95-0.23-3.55l0.06-5.64c0-2.09-0.22-3.54-0.65-4.32c-0.43-0.79-1.18-1.43-2.23-1.94
	c-1.05-0.51-2.66-0.77-4.82-0.77c-2.37,0-4.17,0.43-5.37,1.27c-1.21,0.85-2.05,2.15-2.55,3.91l4.38,0.79
	c0.3-0.85,0.69-1.44,1.17-1.78c0.48-0.33,1.16-0.5,2.02-0.5c1.28,0,2.15,0.2,2.61,0.59c0.46,0.39,0.69,1.05,0.69,1.98v0.48
	c-0.88,0.37-2.44,0.76-4.7,1.19c-1.68,0.32-2.96,0.7-3.85,1.12c-0.89,0.43-1.58,1.05-2.07,1.86c-0.5,0.81-0.75,1.73-0.75,2.76
	c0,1.56,0.54,2.85,1.63,3.87c1.08,1.02,2.56,1.53,4.45,1.53C354.71,244.55,355.71,244.34,356.66,243.94z M352.4,238.64
	c0-0.69,0.32-1.25,0.96-1.7c0.41-0.27,1.29-0.55,2.64-0.84c1.35-0.29,2.33-0.54,2.96-0.74v0.96c0,1.15-0.07,1.94-0.19,2.35
	c-0.19,0.63-0.58,1.16-1.16,1.6c-0.79,0.57-1.62,0.86-2.5,0.86c-0.78,0-1.43-0.25-1.94-0.74C352.65,239.9,352.4,239.32,352.4,238.64
	z M368.22,225.88v18.25h4.82v-5.64c0-3.11,0.13-5.15,0.4-6.12c0.27-0.98,0.64-1.64,1.11-2.02c0.47-0.37,1.04-0.56,1.72-0.56
	c0.69,0,1.45,0.26,2.27,0.79l1.5-4.2c-1.02-0.61-2.09-0.91-3.19-0.91c-0.78,0-1.47,0.2-2.09,0.59c-0.61,0.39-1.31,1.2-2.07,2.42
	v-2.59H368.22z M383.89,226.73c-1.2,0.85-2.05,2.15-2.55,3.91l4.38,0.79c0.3-0.85,0.69-1.44,1.17-1.78c0.48-0.33,1.16-0.5,2.02-0.5
	c1.28,0,2.14,0.2,2.61,0.59c0.46,0.39,0.68,1.05,0.68,1.98v0.48c-0.87,0.37-2.44,0.76-4.7,1.19c-1.67,0.32-2.96,0.7-3.85,1.12
	c-0.89,0.43-1.58,1.05-2.07,1.86c-0.49,0.81-0.74,1.73-0.74,2.76c0,1.56,0.55,2.85,1.63,3.87c1.08,1.02,2.56,1.53,4.44,1.53
	c1.07,0,2.07-0.2,3.01-0.6c0.94-0.41,1.82-1.01,2.65-1.81c0.04,0.09,0.1,0.28,0.18,0.57c0.18,0.63,0.33,1.1,0.46,1.43h4.78
	c-0.42-0.87-0.71-1.68-0.86-2.45c-0.16-0.76-0.24-1.95-0.24-3.55l0.06-5.64c0-2.09-0.21-3.54-0.64-4.32
	c-0.43-0.79-1.17-1.43-2.23-1.94c-1.06-0.51-2.66-0.77-4.82-0.77C386.88,225.46,385.09,225.88,383.89,226.73z M392.21,236.32
	c0,1.15-0.05,1.94-0.19,2.35c-0.18,0.63-0.57,1.16-1.16,1.6c-0.8,0.57-1.63,0.86-2.5,0.86c-0.78,0-1.43-0.25-1.94-0.74
	c-0.5-0.49-0.76-1.08-0.76-1.75c0-0.69,0.32-1.25,0.95-1.7c0.42-0.27,1.3-0.55,2.65-0.84c1.34-0.29,2.34-0.54,2.95-0.74V236.32z
	 M416.28,244.13v-25.19h-4.82v25.19H416.28z M429.04,243.94c0.94-0.41,1.82-1.01,2.65-1.81c0.03,0.09,0.09,0.28,0.17,0.57
	c0.19,0.63,0.33,1.1,0.46,1.43h4.79c-0.43-0.87-0.71-1.68-0.86-2.45c-0.15-0.76-0.23-1.95-0.23-3.55l0.06-5.64
	c0-2.09-0.22-3.54-0.64-4.32c-0.43-0.79-1.17-1.43-2.23-1.94c-1.05-0.51-2.66-0.77-4.82-0.77c-2.37,0-4.17,0.43-5.36,1.27
	c-1.21,0.85-2.05,2.15-2.55,3.91l4.38,0.79c0.3-0.85,0.69-1.44,1.17-1.78c0.49-0.33,1.16-0.5,2.03-0.5c1.27,0,2.14,0.2,2.6,0.59
	c0.46,0.39,0.69,1.05,0.69,1.98v0.48c-0.87,0.37-2.44,0.76-4.7,1.19c-1.68,0.32-2.96,0.7-3.85,1.12c-0.89,0.43-1.58,1.05-2.07,1.86
	c-0.49,0.81-0.74,1.73-0.74,2.76c0,1.56,0.54,2.85,1.62,3.87c1.08,1.02,2.56,1.53,4.45,1.53
	C427.1,244.55,428.09,244.34,429.04,243.94z M424.79,238.64c0-0.69,0.32-1.25,0.95-1.7c0.41-0.27,1.3-0.55,2.64-0.84
	c1.35-0.29,2.33-0.54,2.96-0.74v0.96c0,1.15-0.06,1.94-0.19,2.35c-0.19,0.63-0.57,1.16-1.16,1.6c-0.79,0.57-1.62,0.86-2.5,0.86
	c-0.78,0-1.43-0.25-1.94-0.74C425.04,239.9,424.79,239.32,424.79,238.64z M450.64,218.93v25.19h5.08v-9.5h3.31
	c2.3,0,4.06-0.12,5.27-0.36c0.89-0.2,1.78-0.59,2.64-1.19c0.86-0.6,1.58-1.43,2.14-2.49c0.56-1.05,0.84-2.35,0.84-3.9
	c0-2.01-0.49-3.64-1.46-4.91c-0.97-1.27-2.18-2.09-3.62-2.47c-0.94-0.25-2.96-0.38-6.05-0.38H450.64z M463.87,224.49
	c0.54,0.6,0.8,1.35,0.8,2.27c0,0.74-0.19,1.4-0.57,1.96c-0.38,0.56-0.91,0.97-1.59,1.24c-0.67,0.26-2.01,0.39-4.02,0.39h-2.79v-7.16
	h2.46c1.83,0,3.05,0.06,3.66,0.17C462.66,223.52,463.33,223.89,463.87,224.49z M473.85,225.88v18.25h4.82v-5.64
	c0-3.11,0.13-5.15,0.41-6.12c0.27-0.98,0.64-1.64,1.11-2.02c0.47-0.37,1.05-0.56,1.72-0.56c0.7,0,1.46,0.26,2.27,0.79l1.5-4.2
	c-1.02-0.61-2.08-0.91-3.18-0.91c-0.78,0-1.48,0.2-2.09,0.59c-0.61,0.39-1.31,1.2-2.07,2.42v-2.59H473.85z M491.28,243.41
	c1.51,0.76,3.11,1.14,4.79,1.14c2.71,0,4.95-0.91,6.73-2.73c1.78-1.81,2.68-4.11,2.68-6.87c0-2.74-0.88-5.01-2.65-6.8
	c-1.76-1.79-4.03-2.69-6.79-2.69c-1.79,0-3.41,0.4-4.87,1.19c-1.45,0.79-2.57,1.94-3.36,3.44c-0.79,1.5-1.18,3.05-1.18,4.66
	c0,2.1,0.39,3.88,1.18,5.34C488.61,241.54,489.76,242.65,491.28,243.41z M492.86,230.83c0.86-0.97,1.92-1.45,3.19-1.45
	c1.26,0,2.33,0.48,3.18,1.45c0.85,0.96,1.28,2.34,1.28,4.13c0,1.84-0.43,3.24-1.28,4.2c-0.85,0.97-1.92,1.45-3.18,1.45
	c-1.26,0-2.32-0.48-3.19-1.45c-0.86-0.96-1.29-2.35-1.29-4.17C491.57,233.19,492,231.8,492.86,230.83z M515.63,240.54
	c-0.32,0-0.6-0.08-0.82-0.24c-0.22-0.16-0.37-0.37-0.43-0.61c-0.07-0.25-0.1-1.11-0.1-2.6v-7.36h3.3v-3.85h-3.3v-6.47l-4.82,2.84
	v3.63h-2.23v3.85h2.23v7.96c0,1.71,0.05,2.84,0.16,3.4c0.12,0.8,0.35,1.42,0.67,1.88c0.32,0.47,0.83,0.84,1.53,1.13
	c0.7,0.3,1.48,0.44,2.34,0.44c1.42,0,2.69-0.24,3.8-0.72l-0.41-3.75C516.73,240.38,516.08,240.54,515.63,240.54z M534.35,228.15
	c-1.57-1.79-3.71-2.69-6.43-2.69c-2.42,0-4.43,0.86-6,2.57c-1.59,1.71-2.38,4.08-2.38,7.11c0,2.53,0.6,4.63,1.81,6.29
	c1.52,2.07,3.87,3.11,7.05,3.11c2.01,0,3.67-0.46,5.01-1.39c1.34-0.92,2.31-2.27,2.93-4.03l-4.82-0.81c-0.27,0.92-0.66,1.58-1.17,2
	c-0.52,0.41-1.16,0.62-1.91,0.62c-1.11,0-2.04-0.4-2.79-1.19c-0.75-0.8-1.14-1.92-1.17-3.35h12.13
	C536.67,232.69,535.92,229.94,534.35,228.15z M524.56,233.44c-0.01-1.32,0.33-2.37,1.02-3.13c0.69-0.77,1.56-1.15,2.62-1.15
	c0.99,0,1.82,0.36,2.52,1.09c0.69,0.73,1.05,1.79,1.08,3.19H524.56z M548.37,229.25c0.91,0,1.65,0.24,2.23,0.72
	c0.57,0.48,0.93,1.2,1.09,2.15l4.76-0.86c-0.57-1.96-1.51-3.42-2.83-4.38c-1.31-0.96-3.07-1.44-5.3-1.44
	c-2.71,0-4.87,0.84-6.46,2.52c-1.59,1.68-2.4,4.03-2.4,7.04c0,2.98,0.8,5.31,2.38,7c1.59,1.68,3.72,2.53,6.39,2.53
	c2.35,0,4.23-0.56,5.62-1.67c1.39-1.11,2.34-2.75,2.83-4.92l-4.74-0.81c-0.24,1.27-0.66,2.16-1.24,2.69
	c-0.59,0.52-1.34,0.79-2.26,0.79c-1.23,0-2.21-0.45-2.94-1.35c-0.74-0.9-1.1-2.43-1.1-4.6c0-1.95,0.36-3.35,1.08-4.18
	C546.21,229.66,547.17,229.25,548.37,229.25z M570.27,239.83c-0.58,0.52-1.34,0.79-2.26,0.79c-1.23,0-2.21-0.45-2.94-1.35
	c-0.73-0.9-1.1-2.43-1.1-4.6c0-1.95,0.36-3.35,1.08-4.18c0.72-0.83,1.68-1.25,2.89-1.25c0.91,0,1.65,0.24,2.21,0.72
	c0.57,0.48,0.94,1.2,1.1,2.15l4.76-0.86c-0.58-1.96-1.52-3.42-2.83-4.38c-1.31-0.96-3.08-1.44-5.3-1.44c-2.72,0-4.87,0.84-6.46,2.52
	c-1.6,1.68-2.39,4.03-2.39,7.04c0,2.98,0.79,5.31,2.38,7c1.59,1.68,3.71,2.53,6.38,2.53c2.35,0,4.22-0.56,5.62-1.67
	c1.4-1.11,2.34-2.75,2.84-4.92l-4.74-0.81C571.27,238.41,570.86,239.31,570.27,239.83z M579.66,244.13h4.82v-18.25h-4.82V244.13z
	 M579.66,223.4h4.82v-4.46h-4.82V223.4z M603.3,218.38h-5.4l-2.38,5.14h3.05L603.3,218.38z M597.73,225.46
	c-1.79,0-3.41,0.4-4.86,1.19c-1.45,0.79-2.57,1.94-3.36,3.44c-0.79,1.5-1.19,3.05-1.19,4.66c0,2.1,0.4,3.88,1.19,5.34
	c0.79,1.46,1.95,2.57,3.46,3.33c1.52,0.76,3.12,1.14,4.79,1.14c2.71,0,4.95-0.91,6.74-2.73c1.78-1.81,2.67-4.11,2.67-6.87
	c0-2.74-0.88-5.01-2.65-6.8C602.75,226.36,600.49,225.46,597.73,225.46z M600.93,239.17c-0.86,0.97-1.92,1.45-3.19,1.45
	c-1.26,0-2.32-0.48-3.19-1.45c-0.86-0.96-1.29-2.35-1.29-4.17c0-1.81,0.43-3.21,1.29-4.17c0.86-0.97,1.93-1.45,3.19-1.45
	c1.26,0,2.33,0.48,3.19,1.45c0.85,0.96,1.28,2.34,1.28,4.13C602.21,236.8,601.78,238.21,600.93,239.17z M627.27,229.53
	c-0.18-0.75-0.49-1.43-0.94-2.03c-0.46-0.6-1.12-1.09-2.01-1.47c-0.88-0.38-1.86-0.58-2.92-0.58c-2.42,0-4.43,1.03-6.02,3.1v-2.68
	h-4.49v18.25h4.82v-8.27c0-2.04,0.13-3.44,0.37-4.2c0.24-0.76,0.71-1.37,1.38-1.82c0.67-0.46,1.42-0.69,2.26-0.69
	c0.66,0,1.22,0.16,1.68,0.48c0.47,0.32,0.8,0.77,1.01,1.35c0.21,0.58,0.31,1.85,0.31,3.83v9.32h4.82v-11.34
	C627.53,231.37,627.44,230.29,627.27,229.53z M79.43,281.06l-4.38-12.96h-5.14l6.95,18.31c-0.29,1.02-0.7,1.85-1.24,2.51
	c-0.54,0.66-1.37,0.98-2.49,0.98c-0.61,0-1.29-0.08-2.05-0.22l0.44,3.78c0.89,0.2,1.8,0.29,2.73,0.29c0.92,0,1.74-0.09,2.47-0.29
	c0.73-0.19,1.34-0.46,1.84-0.81c0.5-0.35,0.94-0.81,1.32-1.37c0.39-0.56,0.79-1.38,1.22-2.44l1.16-3.17l6.43-17.57h-5L79.43,281.06z
	 M119.46,263.96c-1.06-1.11-2.32-1.88-3.8-2.32c-1.1-0.32-2.7-0.48-4.79-0.48h-9.3v25.2h9.57c1.88,0,3.38-0.18,4.51-0.54
	c1.5-0.48,2.7-1.15,3.58-2.01c1.17-1.13,2.06-2.61,2.7-4.45c0.51-1.5,0.77-3.29,0.77-5.36c0-2.36-0.28-4.35-0.83-5.95
	C121.31,266.42,120.51,265.07,119.46,263.96z M116.93,278.37c-0.34,1.12-0.79,1.94-1.33,2.43c-0.55,0.49-1.24,0.84-2.06,1.05
	c-0.63,0.16-1.66,0.24-3.09,0.24h-3.81v-16.66h2.29c2.08,0,3.48,0.08,4.19,0.24c0.95,0.21,1.74,0.6,2.36,1.19
	c0.62,0.58,1.11,1.39,1.45,2.44c0.34,1.04,0.52,2.53,0.52,4.48C117.46,275.71,117.28,277.24,116.93,278.37z M139.41,285.39
	c1.34-0.92,2.32-2.27,2.93-4.04l-4.82-0.81c-0.26,0.92-0.66,1.59-1.17,2c-0.52,0.41-1.15,0.62-1.91,0.62c-1.12,0-2.04-0.4-2.8-1.2
	c-0.74-0.8-1.13-1.92-1.17-3.35h12.12c0.07-3.7-0.68-6.45-2.25-8.24c-1.57-1.79-3.72-2.69-6.43-2.69c-2.42,0-4.42,0.86-6,2.57
	c-1.58,1.71-2.38,4.08-2.38,7.11c0,2.53,0.61,4.63,1.8,6.29c1.53,2.08,3.88,3.11,7.05,3.11
	C136.41,286.77,138.08,286.31,139.41,285.39z M131.58,272.52c0.69-0.77,1.56-1.15,2.61-1.15c0.99,0,1.83,0.37,2.52,1.09
	c0.68,0.73,1.05,1.79,1.08,3.19h-7.23C130.56,274.34,130.89,273.29,131.58,272.52z M149.39,261.43c-0.88,0.47-1.48,1.09-1.8,1.85
	c-0.33,0.76-0.49,1.9-0.49,3.44v1.37h-2.68v3.79h2.68v14.47h4.82v-14.47h3.61v-3.79h-3.61v-1.3c0-0.93,0.15-1.57,0.46-1.9
	c0.31-0.33,0.81-0.49,1.51-0.49c0.71,0,1.45,0.09,2.23,0.28l0.64-3.35c-1.32-0.41-2.67-0.62-4.04-0.62
	C151.37,260.72,150.27,260.96,149.39,261.43z M165.21,267.68c-2.42,0-4.42,0.86-6.01,2.57c-1.58,1.71-2.38,4.08-2.38,7.11
	c0,2.53,0.61,4.63,1.81,6.29c1.53,2.08,3.88,3.11,7.05,3.11c2.01,0,3.68-0.46,5.01-1.38c1.33-0.92,2.32-2.27,2.93-4.04l-4.82-0.81
	c-0.26,0.92-0.66,1.59-1.17,2c-0.52,0.41-1.15,0.62-1.91,0.62c-1.12,0-2.05-0.4-2.79-1.2c-0.74-0.8-1.13-1.92-1.17-3.35h12.12
	c0.07-3.7-0.68-6.45-2.25-8.24C170.07,268.58,167.92,267.68,165.21,267.68z M161.86,275.66c-0.01-1.32,0.33-2.36,1.01-3.13
	c0.69-0.77,1.56-1.15,2.62-1.15c0.99,0,1.83,0.37,2.52,1.09c0.68,0.73,1.05,1.79,1.08,3.19H161.86z M182.25,270.78v-2.68h-4.48
	v18.26h4.82v-8.28c0-2.04,0.12-3.44,0.37-4.2c0.24-0.75,0.7-1.36,1.37-1.82c0.67-0.46,1.42-0.69,2.26-0.69
	c0.65,0,1.21,0.16,1.68,0.48c0.47,0.32,0.8,0.77,1.01,1.35c0.2,0.58,0.31,1.85,0.31,3.82v9.32h4.82V275c0-1.41-0.09-2.49-0.27-3.25
	c-0.18-0.76-0.49-1.44-0.94-2.03c-0.46-0.6-1.12-1.09-2-1.47c-0.88-0.38-1.86-0.57-2.93-0.57
	C185.85,267.68,183.85,268.71,182.25,270.78z M209.17,282.59c-0.63,0.46-1.57,0.69-2.82,0.69c-1.13,0-2.01-0.24-2.65-0.73
	c-0.62-0.49-1.05-1.2-1.25-2.15l-4.84,0.74c0.45,1.73,1.39,3.11,2.84,4.12c1.45,1.01,3.42,1.52,5.9,1.52c2.74,0,4.81-0.6,6.21-1.81
	c1.39-1.2,2.1-2.64,2.1-4.31c0-1.54-0.51-2.74-1.51-3.6c-1.02-0.85-2.81-1.57-5.38-2.15c-2.58-0.58-4.08-1.04-4.52-1.36
	c-0.32-0.24-0.48-0.54-0.48-0.88c0-0.4,0.18-0.73,0.55-0.98c0.55-0.35,1.46-0.53,2.73-0.53c1.01,0,1.78,0.19,2.32,0.57
	c0.55,0.38,0.92,0.92,1.11,1.63l4.56-0.83c-0.46-1.6-1.3-2.8-2.51-3.62c-1.21-0.82-3.07-1.22-5.56-1.22c-2.62,0-4.56,0.54-5.81,1.61
	c-1.25,1.08-1.87,2.41-1.87,3.99c0,1.76,0.72,3.12,2.16,4.11c1.04,0.71,3.51,1.5,7.4,2.36c0.84,0.19,1.38,0.41,1.62,0.64
	c0.23,0.24,0.35,0.54,0.35,0.91C209.82,281.84,209.6,282.27,209.17,282.59z M226.68,286.16c0.94-0.4,1.82-1.01,2.64-1.81
	c0.04,0.09,0.09,0.28,0.18,0.57c0.18,0.63,0.34,1.11,0.46,1.43h4.78c-0.42-0.87-0.71-1.69-0.86-2.45c-0.16-0.76-0.23-1.95-0.23-3.55
	l0.06-5.64c0-2.1-0.22-3.54-0.65-4.32c-0.43-0.79-1.17-1.44-2.23-1.95c-1.06-0.51-2.67-0.76-4.82-0.76c-2.38,0-4.17,0.42-5.38,1.27
	c-1.2,0.85-2.05,2.15-2.54,3.91l4.38,0.8c0.3-0.85,0.69-1.44,1.18-1.78c0.48-0.34,1.15-0.51,2.01-0.51c1.28,0,2.15,0.2,2.61,0.59
	c0.46,0.4,0.69,1.05,0.69,1.98v0.48c-0.87,0.37-2.44,0.76-4.7,1.19c-1.68,0.32-2.96,0.7-3.85,1.13c-0.89,0.43-1.58,1.05-2.08,1.86
	c-0.49,0.81-0.74,1.73-0.74,2.76c0,1.56,0.54,2.85,1.62,3.87c1.09,1.02,2.57,1.53,4.44,1.53
	C224.74,286.77,225.74,286.57,226.68,286.16z M222.42,280.86c0-0.69,0.32-1.25,0.95-1.7c0.42-0.27,1.3-0.55,2.65-0.84
	c1.35-0.29,2.33-0.53,2.95-0.74v0.96c0,1.16-0.06,1.94-0.19,2.35c-0.18,0.63-0.57,1.16-1.15,1.6c-0.8,0.57-1.63,0.86-2.51,0.86
	c-0.78,0-1.43-0.24-1.94-0.74C222.67,282.13,222.42,281.54,222.42,280.86z M254.77,286.77c1.03,0,2.06-0.26,3.07-0.77
	c1.01-0.51,1.89-1.29,2.64-2.33v2.68h4.48v-25.2h-4.82v9.07c-1.5-1.7-3.26-2.54-5.3-2.54c-2.22,0-4.06,0.8-5.52,2.41
	c-1.46,1.61-2.18,3.96-2.18,7.06c0,3.03,0.74,5.38,2.24,7.07C250.88,285.92,252.67,286.77,254.77,286.77z M253.24,272.74
	c0.77-0.91,1.73-1.37,2.88-1.37c1.18,0,2.14,0.46,2.9,1.39c0.75,0.92,1.14,2.44,1.14,4.54c0,1.88-0.39,3.3-1.17,4.24
	c-0.78,0.95-1.73,1.42-2.84,1.42c-1.4,0-2.48-0.63-3.26-1.9c-0.54-0.87-0.81-2.28-0.81-4.23
	C252.08,275.01,252.47,273.66,253.24,272.74z M277.15,286.77c2.01,0,3.68-0.46,5.02-1.38c1.33-0.92,2.31-2.27,2.93-4.04l-4.82-0.81
	c-0.26,0.92-0.65,1.59-1.17,2c-0.52,0.41-1.16,0.62-1.91,0.62c-1.12,0-2.04-0.4-2.79-1.2c-0.75-0.8-1.14-1.92-1.17-3.35h12.12
	c0.07-3.7-0.68-6.45-2.26-8.24c-1.57-1.79-3.71-2.69-6.43-2.69c-2.42,0-4.42,0.86-6,2.57c-1.59,1.71-2.37,4.08-2.37,7.11
	c0,2.53,0.6,4.63,1.81,6.29C271.63,285.73,273.98,286.77,277.15,286.77z M274.34,272.52c0.69-0.77,1.56-1.15,2.62-1.15
	c0.99,0,1.82,0.37,2.51,1.09c0.69,0.73,1.05,1.79,1.08,3.19h-7.24C273.31,274.34,273.65,273.29,274.34,272.52z M303.87,261.15h-4.82
	v25.2h4.82V261.15z M308.9,282.31c0.79,1.46,1.95,2.57,3.46,3.33c1.52,0.76,3.11,1.13,4.79,1.13c2.71,0,4.95-0.91,6.74-2.72
	c1.78-1.82,2.67-4.11,2.67-6.87c0-2.74-0.88-5.01-2.65-6.8c-1.76-1.79-4.03-2.69-6.79-2.69c-1.79,0-3.41,0.39-4.86,1.18
	c-1.45,0.79-2.58,1.94-3.36,3.44c-0.79,1.5-1.19,3.06-1.19,4.66C307.71,279.06,308.11,280.85,308.9,282.31z M313.95,273.06
	c0.86-0.96,1.93-1.44,3.19-1.44c1.26,0,2.33,0.48,3.18,1.44c0.85,0.96,1.28,2.35,1.28,4.13c0,1.84-0.43,3.24-1.28,4.21
	c-0.86,0.96-1.92,1.44-3.18,1.44c-1.26,0-2.33-0.48-3.19-1.44c-0.86-0.96-1.29-2.35-1.29-4.17
	C312.65,275.41,313.09,274.02,313.95,273.06z M343.58,284.96c1.39-1.2,2.09-2.64,2.09-4.31c0-1.54-0.5-2.74-1.51-3.6
	c-1.02-0.85-2.82-1.57-5.38-2.15c-2.57-0.58-4.08-1.04-4.51-1.36c-0.32-0.24-0.48-0.54-0.48-0.88c0-0.4,0.18-0.73,0.55-0.98
	c0.55-0.35,1.46-0.53,2.72-0.53c1.02,0,1.79,0.19,2.33,0.57c0.54,0.38,0.91,0.92,1.11,1.63l4.56-0.83c-0.46-1.6-1.29-2.8-2.51-3.62
	c-1.21-0.82-3.07-1.22-5.56-1.22c-2.62,0-4.55,0.54-5.8,1.61c-1.25,1.08-1.87,2.41-1.87,3.99c0,1.76,0.72,3.12,2.16,4.11
	c1.05,0.71,3.51,1.5,7.41,2.36c0.84,0.19,1.38,0.41,1.62,0.64c0.22,0.24,0.34,0.54,0.34,0.91c0,0.54-0.21,0.97-0.63,1.29
	c-0.64,0.46-1.58,0.69-2.82,0.69c-1.14,0-2.02-0.24-2.65-0.73c-0.63-0.49-1.05-1.2-1.25-2.15l-4.84,0.74
	c0.44,1.73,1.39,3.11,2.84,4.12c1.45,1.01,3.42,1.52,5.91,1.52C340.12,286.77,342.18,286.16,343.58,284.96z M377.82,283.97
	c0.75-0.86,1.25-1.91,1.53-3.16c0.27-1.25,0.41-3.39,0.41-6.41v-13.24h-5.08v13.95c0,2-0.07,3.42-0.22,4.29
	c-0.15,0.86-0.6,1.58-1.33,2.17c-0.74,0.59-1.83,0.88-3.28,0.88c-1.42,0-2.55-0.31-3.37-0.94c-0.82-0.63-1.34-1.46-1.56-2.49
	c-0.13-0.64-0.19-2.04-0.19-4.21v-13.65h-5.08v13.45c0,2.82,0.17,4.95,0.5,6.4c0.22,0.97,0.71,1.9,1.42,2.79
	c0.72,0.89,1.7,1.61,2.95,2.17c1.25,0.56,3.07,0.83,5.48,0.83c1.99,0,3.61-0.26,4.84-0.76C376.1,285.51,377.09,284.83,377.82,283.97
	z M400.43,280.65c0-1.54-0.5-2.74-1.51-3.6c-1.02-0.85-2.81-1.57-5.38-2.15c-2.57-0.58-4.07-1.04-4.51-1.36
	c-0.32-0.24-0.47-0.54-0.47-0.88c0-0.4,0.18-0.73,0.54-0.98c0.55-0.35,1.46-0.53,2.73-0.53c1,0,1.78,0.19,2.32,0.57
	c0.54,0.38,0.91,0.92,1.11,1.63l4.57-0.83c-0.46-1.6-1.3-2.8-2.51-3.62c-1.22-0.82-3.07-1.22-5.56-1.22c-2.63,0-4.57,0.54-5.81,1.61
	c-1.25,1.08-1.87,2.41-1.87,3.99c0,1.76,0.72,3.12,2.17,4.11c1.04,0.71,3.51,1.5,7.4,2.36c0.84,0.19,1.37,0.41,1.62,0.64
	c0.22,0.24,0.35,0.54,0.35,0.91c0,0.54-0.22,0.97-0.64,1.29c-0.63,0.46-1.58,0.69-2.83,0.69c-1.13,0-2.01-0.24-2.65-0.73
	c-0.63-0.49-1.05-1.2-1.25-2.15l-4.84,0.74c0.45,1.73,1.39,3.11,2.84,4.12c1.45,1.01,3.42,1.52,5.9,1.52c2.74,0,4.81-0.6,6.21-1.81
	C399.73,283.76,400.43,282.32,400.43,280.65z M416.33,275.8c0,2.61-0.13,4.25-0.37,4.92c-0.24,0.67-0.69,1.23-1.34,1.68
	c-0.65,0.45-1.39,0.68-2.23,0.68c-0.72,0-1.32-0.17-1.79-0.51c-0.47-0.33-0.8-0.79-0.97-1.37c-0.18-0.58-0.27-2.15-0.27-4.72v-8.38
	h-4.82v11.55c0,1.72,0.22,3.06,0.65,4.04c0.44,0.98,1.14,1.73,2.12,2.27c0.98,0.54,2.08,0.81,3.3,0.81c1.2,0,2.35-0.28,3.43-0.84
	c1.08-0.56,1.96-1.33,2.62-2.31v2.74h4.49V268.1h-4.82V275.8z M440.91,280.35l0.06-5.64c0-2.1-0.21-3.54-0.64-4.32
	c-0.43-0.79-1.17-1.44-2.23-1.95c-1.05-0.51-2.66-0.76-4.82-0.76c-2.38,0-4.17,0.42-5.38,1.27c-1.2,0.85-2.05,2.15-2.55,3.91
	l4.38,0.8c0.3-0.85,0.69-1.44,1.17-1.78c0.49-0.34,1.16-0.51,2.02-0.51c1.28,0,2.15,0.2,2.61,0.59c0.46,0.4,0.69,1.05,0.69,1.98
	v0.48c-0.88,0.37-2.44,0.76-4.7,1.19c-1.68,0.32-2.96,0.7-3.85,1.13c-0.89,0.43-1.58,1.05-2.07,1.86c-0.5,0.81-0.74,1.73-0.74,2.76
	c0,1.56,0.54,2.85,1.62,3.87c1.08,1.02,2.57,1.53,4.45,1.53c1.06,0,2.07-0.2,3-0.6c0.94-0.4,1.82-1.01,2.65-1.81
	c0.03,0.09,0.09,0.28,0.17,0.57c0.18,0.63,0.34,1.11,0.46,1.43H442c-0.41-0.87-0.7-1.69-0.86-2.45
	C440.99,283.14,440.91,281.96,440.91,280.35z M436.23,278.54c0,1.16-0.06,1.94-0.19,2.35c-0.18,0.63-0.57,1.16-1.16,1.6
	c-0.8,0.57-1.63,0.86-2.51,0.86c-0.78,0-1.43-0.24-1.93-0.74c-0.5-0.49-0.77-1.08-0.77-1.76c0-0.69,0.32-1.25,0.96-1.7
	c0.41-0.27,1.29-0.55,2.65-0.84c1.34-0.29,2.33-0.53,2.95-0.74V278.54z M454.15,267.68c-0.78,0-1.48,0.19-2.09,0.58
	c-0.61,0.39-1.3,1.2-2.07,2.43v-2.6h-4.49v18.26h4.82v-5.64c0-3.11,0.13-5.15,0.41-6.12c0.27-0.97,0.63-1.65,1.11-2.02
	c0.47-0.38,1.05-0.56,1.72-0.56c0.7,0,1.46,0.26,2.27,0.79l1.5-4.21C456.31,267.99,455.25,267.68,454.15,267.68z M464.22,261.15
	h-4.82v4.47h4.82V261.15z M459.4,286.35h4.82V268.1h-4.82V286.35z M469.25,272.31c-0.79,1.5-1.19,3.06-1.19,4.66
	c0,2.1,0.39,3.88,1.19,5.34c0.78,1.46,1.95,2.57,3.47,3.33c1.51,0.76,3.11,1.13,4.79,1.13c2.7,0,4.95-0.91,6.73-2.72
	c1.78-1.82,2.68-4.11,2.68-6.87c0-2.74-0.88-5.01-2.65-6.8c-1.77-1.79-4.03-2.69-6.8-2.69c-1.79,0-3.4,0.39-4.85,1.18
	C471.16,269.66,470.04,270.81,469.25,272.31z M474.29,273.06c0.86-0.96,1.93-1.44,3.19-1.44c1.26,0,2.32,0.48,3.18,1.44
	c0.86,0.96,1.28,2.35,1.28,4.13c0,1.84-0.43,3.24-1.28,4.21c-0.86,0.96-1.92,1.44-3.18,1.44c-1.26,0-2.33-0.48-3.19-1.44
	c-0.86-0.96-1.29-2.35-1.29-4.17C473,275.41,473.43,274.02,474.29,273.06z M499.13,274.9c-2.58-0.58-4.08-1.04-4.51-1.36
	c-0.32-0.24-0.48-0.54-0.48-0.88c0-0.4,0.18-0.73,0.55-0.98c0.55-0.35,1.46-0.53,2.73-0.53c1,0,1.78,0.19,2.32,0.57
	c0.55,0.38,0.91,0.92,1.11,1.63l4.56-0.83c-0.46-1.6-1.29-2.8-2.5-3.62c-1.22-0.82-3.07-1.22-5.57-1.22c-2.62,0-4.56,0.54-5.81,1.61
	c-1.24,1.08-1.87,2.41-1.87,3.99c0,1.76,0.72,3.12,2.16,4.11c1.04,0.71,3.51,1.5,7.39,2.36c0.84,0.19,1.38,0.41,1.62,0.64
	c0.23,0.24,0.35,0.54,0.35,0.91c0,0.54-0.21,0.97-0.64,1.29c-0.63,0.46-1.57,0.69-2.82,0.69c-1.13,0-2.01-0.24-2.64-0.73
	c-0.63-0.49-1.05-1.2-1.25-2.15l-4.84,0.74c0.44,1.73,1.39,3.11,2.84,4.12c1.45,1.01,3.42,1.52,5.9,1.52c2.74,0,4.8-0.6,6.2-1.81
	c1.4-1.2,2.1-2.64,2.1-4.31c0-1.54-0.5-2.74-1.51-3.6C503.5,276.2,501.7,275.49,499.13,274.9z M531.93,270.23
	c-1.48-1.7-3.25-2.54-5.3-2.54c-2.22,0-4.06,0.8-5.52,2.41c-1.46,1.61-2.18,3.96-2.18,7.06c0,3.03,0.75,5.38,2.24,7.07
	c1.5,1.69,3.3,2.54,5.39,2.54c1.03,0,2.05-0.26,3.07-0.77c1.01-0.51,1.89-1.29,2.64-2.33v2.68h4.48v-25.2h-4.82V270.23z
	 M530.78,281.54c-0.77,0.95-1.72,1.42-2.83,1.42c-1.4,0-2.48-0.63-3.26-1.9c-0.54-0.87-0.81-2.28-0.81-4.23
	c0-1.81,0.38-3.17,1.16-4.09c0.77-0.91,1.73-1.37,2.88-1.37c1.18,0,2.15,0.46,2.91,1.39c0.75,0.92,1.13,2.44,1.13,4.54
	C531.96,279.18,531.57,280.59,530.78,281.54z M554.9,270.37c-1.57-1.79-3.71-2.69-6.43-2.69c-2.42,0-4.42,0.86-6,2.57
	c-1.58,1.71-2.37,4.08-2.37,7.11c0,2.53,0.6,4.63,1.81,6.29c1.52,2.08,3.87,3.11,7.05,3.11c2,0,3.67-0.46,5-1.38
	c1.34-0.92,2.31-2.27,2.94-4.04l-4.82-0.81c-0.27,0.92-0.65,1.59-1.17,2c-0.52,0.41-1.16,0.62-1.92,0.62c-1.11,0-2.04-0.4-2.79-1.2
	c-0.75-0.8-1.14-1.92-1.17-3.35h12.13C557.23,274.91,556.48,272.16,554.9,270.37z M545.12,275.66c-0.01-1.32,0.33-2.36,1.01-3.13
	c0.69-0.77,1.56-1.15,2.62-1.15c0.99,0,1.82,0.37,2.51,1.09c0.69,0.73,1.05,1.79,1.09,3.19H545.12z M150.2,314.66
	c-1.19-0.62-3.02-1.23-5.49-1.81c-2.48-0.59-4.03-1.15-4.67-1.69c-0.5-0.43-0.76-0.94-0.76-1.53c0-0.65,0.27-1.18,0.81-1.57
	c0.83-0.61,1.99-0.92,3.47-0.92c1.43,0,2.51,0.29,3.23,0.86c0.72,0.56,1.19,1.5,1.4,2.8l5.08-0.22c-0.08-2.32-0.92-4.17-2.51-5.56
	c-1.6-1.39-3.98-2.08-7.14-2.08c-1.93,0-3.58,0.29-4.96,0.88c-1.37,0.59-2.41,1.44-3.14,2.56c-0.73,1.12-1.09,2.32-1.09,3.6
	c0,1.99,0.78,3.69,2.32,5.07c1.1,0.99,3.02,1.82,5.74,2.5c2.11,0.53,3.47,0.9,4.07,1.1c0.87,0.31,1.48,0.67,1.83,1.09
	c0.35,0.42,0.52,0.92,0.52,1.52c0,0.93-0.42,1.74-1.24,2.43c-0.83,0.69-2.07,1.04-3.71,1.04c-1.55,0-2.78-0.39-3.68-1.16
	c-0.91-0.78-1.52-2-1.82-3.65l-4.94,0.48c0.33,2.82,1.35,4.96,3.06,6.44c1.71,1.47,4.15,2.21,7.33,2.21c2.19,0,4.02-0.31,5.48-0.92
	c1.46-0.61,2.6-1.55,3.4-2.81c0.81-1.26,1.21-2.62,1.21-4.06c0-1.59-0.33-2.93-1.01-4.02C152.31,316.14,151.38,315.29,150.2,314.66z
	 M171.62,312.59c-1.57-1.79-3.71-2.69-6.43-2.69c-2.42,0-4.42,0.86-6,2.57c-1.59,1.71-2.37,4.08-2.37,7.11
	c0,2.53,0.6,4.63,1.81,6.29c1.52,2.07,3.87,3.11,7.05,3.11c2.01,0,3.68-0.46,5.02-1.39c1.33-0.92,2.31-2.27,2.93-4.03l-4.82-0.82
	c-0.26,0.92-0.65,1.59-1.17,2c-0.52,0.41-1.16,0.62-1.91,0.62c-1.12,0-2.04-0.4-2.79-1.2c-0.75-0.8-1.14-1.91-1.17-3.35h12.12
	C173.95,317.13,173.2,314.39,171.62,312.59z M161.84,317.88c-0.01-1.32,0.33-2.37,1.02-3.13c0.69-0.77,1.56-1.15,2.62-1.15
	c0.99,0,1.82,0.37,2.51,1.1c0.69,0.72,1.05,1.79,1.08,3.19H161.84z M199.7,319.64c-0.19,0.51-0.36,1.03-0.52,1.55
	c-0.07,0.25-0.24,0.77-0.5,1.56l-1-3.11l-3.43-9.32h-5.08l0.19,0.47c-1-0.59-2.04-0.88-3.12-0.88c-0.78,0-1.48,0.2-2.09,0.59
	c-0.62,0.39-1.3,1.2-2.07,2.42v-2.59h-4.48v18.25h4.82v-5.64c0-3.11,0.14-5.15,0.41-6.12c0.27-0.98,0.64-1.64,1.11-2.02
	c0.46-0.37,1.04-0.56,1.71-0.56c0.71,0,1.46,0.27,2.27,0.79l1.48-4.15l7.13,17.7h4.34l7.25-18.25h-4.96L199.7,319.64z
	 M211.06,328.57h4.82v-18.25h-4.82V328.57z M211.06,307.84h4.82v-4.46h-4.82V307.84z M231.02,324.28c-0.58,0.52-1.34,0.78-2.26,0.78
	c-1.23,0-2.21-0.45-2.95-1.35c-0.73-0.89-1.09-2.43-1.09-4.6c0-1.95,0.36-3.35,1.08-4.18c0.72-0.83,1.68-1.25,2.89-1.25
	c0.91,0,1.65,0.24,2.21,0.72c0.58,0.48,0.94,1.2,1.1,2.15l4.76-0.85c-0.57-1.96-1.52-3.42-2.83-4.38c-1.31-0.96-3.08-1.44-5.31-1.44
	c-2.72,0-4.87,0.84-6.46,2.52c-1.59,1.68-2.38,4.02-2.38,7.04c0,2.98,0.79,5.31,2.38,7c1.59,1.69,3.71,2.53,6.38,2.53
	c2.35,0,4.23-0.56,5.62-1.67c1.4-1.11,2.34-2.75,2.84-4.92l-4.74-0.81C232.02,322.86,231.61,323.76,231.02,324.28z M240.4,307.84
	h4.82v-4.46h-4.82V307.84z M240.4,328.57h4.82v-18.25h-4.82V328.57z M258.47,309.9c-1.78,0-3.4,0.4-4.86,1.19
	c-1.45,0.79-2.57,1.94-3.36,3.44c-0.79,1.5-1.19,3.05-1.19,4.66c0,2.1,0.4,3.88,1.19,5.34c0.79,1.46,1.95,2.57,3.47,3.33
	c1.52,0.75,3.11,1.14,4.79,1.14c2.71,0,4.95-0.91,6.73-2.73c1.78-1.82,2.67-4.11,2.67-6.87c0-2.74-0.88-5.01-2.65-6.8
	C263.5,310.8,261.24,309.9,258.47,309.9z M261.67,323.62c-0.86,0.96-1.92,1.45-3.18,1.45c-1.26,0-2.33-0.48-3.2-1.45
	c-0.86-0.97-1.29-2.35-1.29-4.17c0-1.81,0.43-3.21,1.29-4.17c0.86-0.97,1.93-1.45,3.2-1.45c1.26,0,2.32,0.48,3.18,1.45
	c0.86,0.96,1.28,2.34,1.28,4.13C262.95,321.25,262.53,322.65,261.67,323.62z M280.14,317.13c-2.58-0.59-4.08-1.04-4.52-1.36
	c-0.32-0.24-0.47-0.53-0.47-0.88c0-0.4,0.18-0.73,0.54-0.98c0.55-0.36,1.46-0.54,2.73-0.54c1.01,0,1.78,0.19,2.32,0.57
	c0.54,0.38,0.91,0.92,1.11,1.63l4.56-0.83c-0.46-1.6-1.3-2.8-2.51-3.62c-1.21-0.81-3.07-1.22-5.56-1.22c-2.62,0-4.56,0.54-5.81,1.62
	c-1.24,1.08-1.87,2.4-1.87,3.99c0,1.75,0.72,3.12,2.16,4.11c1.04,0.71,3.51,1.5,7.4,2.36c0.84,0.19,1.38,0.41,1.62,0.63
	c0.23,0.24,0.35,0.55,0.35,0.92c0,0.54-0.22,0.97-0.64,1.29c-0.63,0.46-1.57,0.69-2.82,0.69c-1.13,0-2.02-0.24-2.65-0.73
	c-0.62-0.49-1.05-1.21-1.25-2.14l-4.84,0.73c0.45,1.74,1.39,3.11,2.84,4.12c1.45,1.01,3.42,1.52,5.9,1.52c2.74,0,4.8-0.61,6.2-1.81
	c1.39-1.21,2.1-2.64,2.1-4.32c0-1.54-0.5-2.74-1.51-3.59C284.5,318.43,282.71,317.71,280.14,317.13z M301.08,328.57h5.08v-10.71
	h10.56v-4.27h-10.56v-5.95h12.22v-4.26h-17.3V328.57z M322.51,328.57h4.82v-18.25h-4.82V328.57z M322.51,307.84h4.82v-4.46h-4.82
	V307.84z M347.68,311.95c-0.46-0.59-1.12-1.09-2.01-1.47c-0.88-0.38-1.85-0.58-2.92-0.58c-2.42,0-4.42,1.04-6.02,3.1v-2.68h-4.48
	v18.25h4.82v-8.27c0-2.04,0.13-3.44,0.38-4.2c0.24-0.76,0.7-1.37,1.37-1.82c0.67-0.46,1.42-0.69,2.26-0.69
	c0.66,0,1.21,0.16,1.68,0.48c0.47,0.32,0.8,0.77,1.01,1.35c0.21,0.58,0.31,1.86,0.31,3.83v9.32h4.82v-11.34
	c0-1.41-0.09-2.49-0.26-3.25C348.45,313.22,348.14,312.55,347.68,311.95z M368.56,322.57l0.05-5.64c0-2.09-0.22-3.54-0.64-4.32
	c-0.43-0.79-1.17-1.43-2.23-1.94c-1.05-0.51-2.66-0.77-4.82-0.77c-2.37,0-4.17,0.43-5.37,1.27c-1.21,0.85-2.06,2.15-2.55,3.91
	l4.38,0.79c0.3-0.85,0.69-1.44,1.17-1.78c0.49-0.34,1.16-0.51,2.03-0.51c1.28,0,2.14,0.2,2.6,0.59c0.46,0.39,0.69,1.05,0.69,1.98
	v0.48c-0.88,0.37-2.45,0.76-4.71,1.19c-1.67,0.31-2.96,0.69-3.85,1.12c-0.89,0.43-1.58,1.05-2.07,1.86
	c-0.5,0.81-0.75,1.73-0.75,2.76c0,1.56,0.54,2.85,1.63,3.87c1.08,1.03,2.56,1.54,4.45,1.54c1.06,0,2.06-0.21,3-0.61
	c0.94-0.4,1.82-1.01,2.65-1.81c0.03,0.09,0.09,0.28,0.17,0.56c0.19,0.63,0.34,1.11,0.47,1.43h4.78c-0.42-0.87-0.71-1.69-0.86-2.45
	C368.64,325.36,368.56,324.18,368.56,322.57z M363.88,320.76c0,1.16-0.07,1.95-0.19,2.35c-0.19,0.63-0.58,1.16-1.16,1.6
	c-0.8,0.57-1.63,0.86-2.5,0.86c-0.78,0-1.43-0.25-1.94-0.74c-0.5-0.49-0.76-1.08-0.76-1.75c0-0.69,0.32-1.25,0.95-1.7
	c0.41-0.27,1.29-0.55,2.64-0.84c1.34-0.29,2.33-0.53,2.96-0.74V320.76z M388.74,311.95c-0.45-0.59-1.12-1.09-2-1.47
	c-0.88-0.38-1.86-0.58-2.92-0.58c-2.42,0-4.43,1.04-6.02,3.1v-2.68h-4.48v18.25h4.82v-8.27c0-2.04,0.12-3.44,0.36-4.2
	c0.25-0.76,0.71-1.37,1.37-1.82c0.66-0.46,1.42-0.69,2.26-0.69c0.66,0,1.22,0.16,1.68,0.48c0.47,0.32,0.8,0.77,1.01,1.35
	c0.2,0.58,0.31,1.86,0.31,3.83v9.32h4.82v-11.34c0-1.41-0.08-2.49-0.27-3.25C389.51,313.22,389.19,312.55,388.74,311.95z
	 M405.02,324.28c-0.58,0.52-1.34,0.78-2.26,0.78c-1.23,0-2.21-0.45-2.94-1.35c-0.73-0.89-1.09-2.43-1.09-4.6
	c0-1.95,0.37-3.35,1.08-4.18c0.72-0.83,1.68-1.25,2.89-1.25c0.91,0,1.65,0.24,2.21,0.72c0.57,0.48,0.93,1.2,1.09,2.15l4.76-0.85
	c-0.57-1.96-1.51-3.42-2.83-4.38c-1.31-0.96-3.08-1.44-5.3-1.44c-2.72,0-4.87,0.84-6.47,2.52c-1.59,1.68-2.38,4.02-2.38,7.04
	c0,2.98,0.79,5.31,2.38,7c1.59,1.69,3.71,2.53,6.38,2.53c2.35,0,4.23-0.56,5.62-1.67c1.4-1.11,2.35-2.75,2.84-4.92l-4.74-0.81
	C406.03,322.86,405.61,323.76,405.02,324.28z M414.41,307.84h4.82v-4.46h-4.82V307.84z M414.41,328.57h4.82v-18.25h-4.82V328.57z
	 M437.59,312.59c-1.57-1.79-3.71-2.69-6.43-2.69c-2.42,0-4.42,0.86-6,2.57c-1.58,1.71-2.37,4.08-2.37,7.11
	c0,2.53,0.6,4.63,1.81,6.29c1.52,2.07,3.87,3.11,7.05,3.11c2,0,3.67-0.46,5-1.39c1.34-0.92,2.32-2.27,2.94-4.03l-4.82-0.82
	c-0.27,0.92-0.66,1.59-1.17,2c-0.52,0.41-1.16,0.62-1.92,0.62c-1.11,0-2.04-0.4-2.79-1.2c-0.75-0.8-1.14-1.91-1.17-3.35h12.12
	C439.91,317.13,439.16,314.39,437.59,312.59z M427.8,317.88c-0.01-1.32,0.33-2.37,1.02-3.13c0.69-0.77,1.56-1.15,2.62-1.15
	c0.99,0,1.82,0.37,2.51,1.1c0.69,0.72,1.05,1.79,1.09,3.19H427.8z M450.11,310.49c-0.61,0.39-1.3,1.2-2.07,2.42v-2.59h-4.48v18.25
	h4.82v-5.64c0-3.11,0.13-5.15,0.41-6.12c0.27-0.98,0.64-1.64,1.11-2.02c0.47-0.37,1.04-0.56,1.72-0.56c0.7,0,1.46,0.27,2.27,0.79
	l1.5-4.21c-1.02-0.61-2.08-0.91-3.18-0.91C451.41,309.9,450.72,310.1,450.11,310.49z M465.74,309.9c-1.79,0-3.41,0.4-4.86,1.19
	c-1.45,0.79-2.57,1.94-3.36,3.44c-0.79,1.5-1.18,3.05-1.18,4.66c0,2.1,0.39,3.88,1.18,5.34c0.79,1.46,1.95,2.57,3.47,3.33
	c1.51,0.75,3.11,1.14,4.79,1.14c2.7,0,4.95-0.91,6.73-2.73c1.79-1.82,2.68-4.11,2.68-6.87c0-2.74-0.88-5.01-2.65-6.8
	C470.77,310.8,468.5,309.9,465.74,309.9z M468.93,323.62c-0.85,0.96-1.91,1.45-3.18,1.45c-1.27,0-2.32-0.48-3.19-1.45
	c-0.86-0.97-1.29-2.35-1.29-4.17c0-1.81,0.43-3.21,1.29-4.17c0.86-0.97,1.92-1.45,3.19-1.45c1.26,0,2.33,0.48,3.18,1.45
	c0.86,0.96,1.29,2.34,1.29,4.13C470.22,321.25,469.79,322.65,468.93,323.62z M487.4,317.13c-2.58-0.59-4.07-1.04-4.51-1.36
	c-0.32-0.24-0.48-0.53-0.48-0.88c0-0.4,0.18-0.73,0.55-0.98c0.55-0.36,1.46-0.54,2.72-0.54c1,0,1.78,0.19,2.32,0.57
	c0.55,0.38,0.91,0.92,1.11,1.63l4.56-0.83c-0.46-1.6-1.3-2.8-2.51-3.62c-1.22-0.81-3.07-1.22-5.56-1.22c-2.63,0-4.56,0.54-5.81,1.62
	c-1.24,1.08-1.87,2.4-1.87,3.99c0,1.75,0.72,3.12,2.16,4.11c1.05,0.71,3.51,1.5,7.4,2.36c0.83,0.19,1.37,0.41,1.62,0.63
	c0.23,0.24,0.34,0.55,0.34,0.92c0,0.54-0.21,0.97-0.64,1.29c-0.63,0.46-1.56,0.69-2.82,0.69c-1.14,0-2.02-0.24-2.65-0.73
	c-0.63-0.49-1.05-1.21-1.25-2.14l-4.84,0.73c0.44,1.74,1.39,3.11,2.84,4.12c1.45,1.01,3.42,1.52,5.9,1.52c2.74,0,4.8-0.61,6.2-1.81
	c1.4-1.21,2.1-2.64,2.1-4.32c0-1.54-0.5-2.74-1.51-3.59C491.77,318.43,489.97,317.71,487.4,317.13z"/>
</svg>
