<?xml version="1.0" encoding="utf-8"?>
<!-- Generator: Adobe Illustrator 22.0.0, SVG Export Plug-In . SVG Version: 6.00 Build 0)  -->
<svg version="1.1" id="Capa_1" xmlns="http://www.w3.org/2000/svg" xmlns:xlink="http://www.w3.org/1999/xlink" x="0px" y="0px"
	 viewBox="0 0 1016 1550" style="enable-background:new 0 0 1016 1550;" xml:space="preserve">
<style type="text/css">
	.st0{opacity:0.5;fill:#FFFFFF;}
	.st1{opacity:0.6;}
	.st2{clip-path:url(#SVGID_2_);}
	.st3{fill:#FFFFFF;}
	.st4{clip-path:url(#SVGID_4_);}
</style>
<g>
	<circle class="st0" cx="158.2" cy="734.7" r="35.6"/>
	<circle class="st0" cx="339.2" cy="468.9" r="35.6"/>
	<circle class="st0" cx="48.7" cy="1027.7" r="35.6"/>
	<g class="st1">
		<defs>
			
				<rect id="SVGID_1_" x="50.9" y="4.5" transform="matrix(0.8777 0.4793 -0.4793 0.8777 506.5387 -216.9302)" class="st1" width="1254.5" height="1758.5"/>
		</defs>
		<clipPath id="SVGID_2_">
			<use xlink:href="#SVGID_1_"  style="overflow:visible;"/>
		</clipPath>
		<g class="st2">
			<path class="st3" d="M590.3,2353.4c-137-74.8-254.1-176.2-348.1-301.5c-90.8-121-156.3-259-194.8-410.1S-0.4,1333.9,19.5,1176
				c20.6-163.5,71.8-321.1,152.3-468.5S357.3,431.7,483.7,326c122.1-102.1,259-178.9,407-228.3c147.9-49.4,299.5-68.8,450.3-57.8
				c156.2,11.4,304.8,55.1,441.8,129.9s254.1,176.2,348.1,301.5c90.8,121,156.3,259,194.8,410.1c38.4,151.2,47.8,307.9,27.9,465.8
				c-20.6,163.5-71.8,321.1-152.3,468.5s-185.4,275.7-311.8,381.4c-122.1,102.1-259,178.9-407,228.3s-299.5,68.8-450.3,57.8
				C876,2471.9,727.3,2428.2,590.3,2353.4z M1781.2,172.6C1644.6,98,1496.4,54.4,1340.6,43.1c-150.5-11-301.6,8.4-449.1,57.7
				C743.9,150,607.3,226.6,485.5,328.4c-126.1,105.4-230.7,233.4-311,380.4S43.1,1013.1,22.6,1176.2
				C2.7,1333.7,12.1,1490,50.4,1640.8c38.3,150.8,103.7,288.4,194.3,409c93.8,124.9,210.6,226.1,347.2,300.7
				c136.6,74.6,284.9,118.2,440.7,129.6c150.5,11,301.6-8.4,449.1-57.7c147.6-49.3,284.1-125.9,405.9-227.7
				c126.1-105.4,230.7-233.4,311-380.4s131.4-304.2,151.9-467.3c19.8-157.5,10.5-313.8-27.9-464.6
				c-38.3-150.8-103.7-288.4-194.3-409C2034.7,348.4,1917.9,247.2,1781.2,172.6z"/>
		</g>
	</g>
</g>
<g>
	<circle class="st0" cx="158.2" cy="734.7" r="35.6"/>
	<circle class="st0" cx="339.2" cy="468.9" r="35.6"/>
	<circle class="st0" cx="48.7" cy="1027.7" r="35.6"/>
	<g class="st1">
		<defs>
			
				<rect id="SVGID_3_" x="50.9" y="4.5" transform="matrix(0.8777 0.4793 -0.4793 0.8777 506.5387 -216.9302)" class="st1" width="1254.5" height="1758.5"/>
		</defs>
		<clipPath id="SVGID_4_">
			<use xlink:href="#SVGID_3_"  style="overflow:visible;"/>
		</clipPath>
		<g class="st4">
			<path class="st3" d="M590.3,2353.4c-137-74.8-254.1-176.2-348.1-301.5c-90.8-121-156.3-259-194.8-410.1S-0.4,1333.9,19.5,1176
				c20.6-163.5,71.8-321.1,152.3-468.5S357.3,431.7,483.7,326c122.1-102.1,259-178.9,407-228.3c147.9-49.4,299.5-68.8,450.3-57.8
				c156.2,11.4,304.8,55.1,441.8,129.9s254.1,176.2,348.1,301.5c90.8,121,156.3,259,194.8,410.1c38.4,151.2,47.8,307.9,27.9,465.8
				c-20.6,163.5-71.8,321.1-152.3,468.5s-185.4,275.7-311.8,381.4c-122.1,102.1-259,178.9-407,228.3s-299.5,68.8-450.3,57.8
				C876,2471.9,727.3,2428.2,590.3,2353.4z M1781.2,172.6C1644.6,98,1496.4,54.4,1340.6,43.1c-150.5-11-301.6,8.4-449.1,57.7
				C743.9,150,607.3,226.6,485.5,328.4c-126.1,105.4-230.7,233.4-311,380.4S43.1,1013.1,22.6,1176.2
				C2.7,1333.7,12.1,1490,50.4,1640.8c38.3,150.8,103.7,288.4,194.3,409c93.8,124.9,210.6,226.1,347.2,300.7
				c136.6,74.6,284.9,118.2,440.7,129.6c150.5,11,301.6-8.4,449.1-57.7c147.6-49.3,284.1-125.9,405.9-227.7
				c126.1-105.4,230.7-233.4,311-380.4s131.4-304.2,151.9-467.3c19.8-157.5,10.5-313.8-27.9-464.6
				c-38.3-150.8-103.7-288.4-194.3-409C2034.7,348.4,1917.9,247.2,1781.2,172.6z"/>
		</g>
	</g>
</g>
</svg>
