<?xml version="1.0" encoding="utf-8"?>
<!-- Generator: Adobe Illustrator 22.0.0, SVG Export Plug-In . SVG Version: 6.00 Build 0)  -->
<svg version="1.1" id="Capa_1" xmlns="http://www.w3.org/2000/svg" xmlns:xlink="http://www.w3.org/1999/xlink" x="0px" y="0px"
	 viewBox="0 0 303 1090" style="enable-background:new 0 0 303 1090;" xml:space="preserve">
<style type="text/css">
	.st0{opacity:0.5;fill:#FFFFFF;}
	.st1{opacity:0.6;}
	.st2{clip-path:url(#SVGID_2_);}
	.st3{fill:#FFFFFF;}
</style>
<g>
	<circle class="st0" cx="20" cy="559" r="20"/>
	<circle class="st0" cx="74" cy="324" r="20"/>
	<circle class="st0" cx="40" cy="784" r="20"/>
	<g class="st1">
		<defs>
			<rect id="SVGID_1_" x="-45" y="4" class="st1" width="829" height="1080"/>
		</defs>
		<clipPath id="SVGID_2_">
			<use xlink:href="#SVGID_1_"  style="overflow:visible;"/>
		</clipPath>
		<g class="st2">
			<path class="st3" d="M784,1362c-103.1,0-203.2-20.2-297.4-60c-91-38.5-172.7-93.6-242.8-163.7S118.5,986.4,80,895.4
				C40.2,801.2,20,701.1,20,598s20.2-203.2,60-297.4c38.5-91,93.6-172.7,163.7-242.8C313.9-12.4,395.6-67.5,486.6-106
				c94.2-39.8,194.2-60,297.4-60s203.2,20.2,297.4,60c91,38.5,172.7,93.6,242.8,163.7c70.2,70.2,125.3,151.9,163.7,242.8
				c39.8,94.2,60,194.2,60,297.4s-20.2,203.2-60,297.4c-38.5,91-93.6,172.7-163.7,242.8s-151.9,125.3-242.8,163.7
				C987.2,1341.8,887.1,1362,784,1362z M784-164c-102.9,0-202.7,20.1-296.6,59.9C396.7-65.7,315.2-10.8,245.2,59.2
				c-70,70-124.9,151.5-163.3,242.2C42.1,395.3,22,495.1,22,598s20.1,202.7,59.9,296.6c38.4,90.7,93.3,172.2,163.3,242.2
				c70,70,151.5,124.9,242.2,163.3c93.9,39.7,193.7,59.9,296.6,59.9s202.7-20.1,296.6-59.9c90.7-38.4,172.2-93.3,242.2-163.3
				c70-70,124.9-151.5,163.3-242.2c39.7-93.9,59.9-193.7,59.9-296.6s-20.1-202.7-59.9-296.6c-38.4-90.7-93.3-172.2-163.3-242.2
				c-70-70-151.5-124.9-242.2-163.3C986.7-143.9,886.9-164,784-164z"/>
		</g>
	</g>
</g>
</svg>
